<?xml version="1.0" standalone="no"?>
<!DOCTYPE svg PUBLIC "-//W3C//DTD SVG 1.1//EN" "http://www.w3.org/Graphics/SVG/1.1/DTD/svg11.dtd" >
<svg xmlns="http://www.w3.org/2000/svg" xmlns:xlink="http://www.w3.org/1999/xlink" version="1.1">
<metadata></metadata>
<defs>
<font id="turkish_another_typewriterRg" horiz-adv-x="1255" >
<font-face units-per-em="2048" ascent="1638" descent="-410" />
<missing-glyph horiz-adv-x="1024" />
<glyph horiz-adv-x="0" />
<glyph horiz-adv-x="682" />
<glyph unicode=" "  horiz-adv-x="1024" />
<glyph unicode="&#x09;" horiz-adv-x="1024" />
<glyph unicode="&#xa0;" horiz-adv-x="1024" />
<glyph unicode="!" horiz-adv-x="403" d="M20 1364q0 -18 11 -49q12 -41 14 -49q27 -127 37 -299q6 -100 18 -299q8 -121 103 -121q37 0 73 41q31 84 37 203q2 68 11 204q20 109 55 326v27q0 117 -72 116h-215q-72 0 -72 -100zM51 186q0 -78 35 -125q41 -55 115 -55q47 0 98 33q66 84 66 131q0 70 -48.5 125 t-115.5 55q-70 0 -110 -46t-40 -118z" />
<glyph unicode="&#x22;" horiz-adv-x="886" d="M20 1294q0 -100 125 -161q29 -20 29 -41q0 -45 -57.5 -128t-57.5 -128q0 -66 95 -66q104 0 174 160q55 129 55 244q0 55 -18 129q-23 88 -56 108q-23 12 -84 43l-12 6h-55l-13 -6q-8 -4 -84 -43q-41 -20 -41 -117zM502 1319q0 -100 125 -162q29 -20 28 -41 q0 -45 -57 -128t-57 -130q0 -66 94 -65q106 0 174 159q55 131 55 246q0 53 -18 127q-23 90 -52.5 108.5t-84.5 45.5q-12 4 -15 4h-6l-18 -4q-12 -2 -95 -29q-41 -12 -53 -35q-20 -39 -20 -96z" />
<glyph unicode="#" horiz-adv-x="1024" d="M74 518q0 -37 32 -33h218l-115 -315q-2 -6 -3 -7t-1 -3l-2 -8q-2 -4 -2 -9q0 -43 39 -43h14q8 2 12 2q37 16 43 48l131 335h281l-117 -327q-2 -2 -2 -4v-4q-2 -2 -2 -5l-2 -4q0 -27 35 -39h33q37 10 41 33l131 350l264 -2q80 0 92 62v6q0 53 -61 53h-252l102 291l236 -2 q57 0 73 59v17q-6 43 -59 43h-203l117 299q4 8 4 20v12q0 29 -25 35q-2 2 -8 2q-57 0 -84 -51q-2 -2 -2 -4l-2 -4l-121 -309h-276l117 323v21q0 25 -25 30q-2 2 -8 3q-8 0 -25 -5q-39 -16 -45 -34l-133 -338l-291 -2l-12 -4q-39 -18 -39 -68q0 -25 18 -37q12 -6 33 -6h246 l-100 -291l-234 -2q-37 0 -55 -55q-6 -12 -6 -29zM485 604l105 291h276l-102 -291h-279z" />
<glyph unicode="$" horiz-adv-x="1116" d="M20 293q12 -6 25 -33l27 -57q18 -39 28 -56q23 -33 41 -45q16 -2 43 -8q8 -4 23 -20l20 -23q12 -8 39 -13t39 -11q37 -20 37 -35v-250h139v231q8 2 24.5 10.5t26.5 8.5q23 0 21 -15h78v-219q-10 -4 -10 -16h151q0 31 -12 35v196q0 10 74 35q41 12 90 43q2 2 4 13.5 t4 13.5q23 6 59 24q16 16 58 111q25 55 47 96v232q-14 8 -31 59q-8 29 -21 62q-20 18 -43 43q-8 23 -12 30q-10 14 -28.5 17.5t-28.5 21.5q-2 10 -8 25q-18 18 -62 24q-53 8 -67.5 17.5t-19.5 37t-15 33.5v422q16 6 16 35h23q25 0 41 -27q23 -37 32 -43v-94 q-45 -25 -45 -100q0 -23 17 -53q18 -37 37 -37h129q16 0 51 53q8 8 8 43l8 8v78l-8 8q-25 47 -59 146l-70 69q-18 0 -33 21q-25 10 -57 26q-25 10 -78 29v129l-20 18h-62l-20 -18v-76q-55 -18 -43 -18h-4l-9 8q0 2 -2 2h-2q-4 0 -6 -2l-8 -8h-14q-10 -2 -15 -2q-76 0 -75 82 q0 14 2 32q-6 2 -21.5 10.5t-26.5 8.5q-23 0 -40 -23q-23 -29 -29 -30v-95q-8 -8 -53 -30l-62 -31l-78 -76q-25 6 -30 -18l-4 -33q-2 -4 -27 -27q-4 -6 -17 -59q-10 -43 -16 -43v-182q10 -10 39 -60.5t29 -58.5l69 -74h78q14 -10 43 -47q0 -8 8 -8v-559q-12 -4 -14 -30.5 t-25 -26.5q-16 0 -22 6l-68 67v8q-2 6 -2 11q0 18 23.5 66t38.5 52v62q-12 27 -29 63q-33 57 -113 58q-10 0 -46 -13.5t-40 -18.5t-13 -44t-26 -45v-129zM193 1135v4q0 39 27.5 95t58.5 81q2 2 13 5t13 5q6 14 19 35q6 12 49 12v-426q-4 -12 -17 -35h-4q-39 0 -94 69t-53 69 v77q-4 0 -12 9zM485 121v387l9 8v78l-9 8v152q31 0 43 -6q6 0 9 -13h94v-598q0 -18 -35 -35h-12q-12 -2 -17 -2h-14q-8 0 -18 9l-7 4q-16 2 -43 8zM485 889v358l13 8v129q33 0 39 17h94l16 -17v-489q0 -18 -37 -18h-18q-14 0 -12 12h-95zM743 156v438l13 8v98q14 0 24 -2 l21 -6q41 -12 53 -12q6 -33 37 -66q43 -47 49 -55q8 -16 8 -43l6 -4q2 -4 4 -4v-182q-16 -10 -69 -103q-14 -18 -51 -42.5t-52 -43.5h-14q-29 0 -29 19z" />
<glyph unicode="%" horiz-adv-x="1359" d="M18 -117q0 -68 86 -67q63 0 93 41l495 712q289 416 508 707q29 37 86 108q49 66 49 127q0 141 -180 142h-59q-29 -8 -64 -43q-41 -41 -57 -54q-43 -31 -217 -88q-47 -29 -152 -65q-35 0 -168 -8q-147 -8 -262 -158q-109 -141 -108 -295q0 -123 74.5 -204t195.5 -81 q131 0 252 154q113 145 112 281q0 20 -4 58t-4 58q0 37 37 54q12 8 68 20q20 6 67 33l86 47q117 63 131 63q0 -59 -86 -151q-39 -41 -94 -129q-35 -55 -112 -162q-16 -20 -25 -29q-20 -37 -39 -71q-4 -8 -8 -17q-68 -72 -289 -377l-33 -49q-2 -6 -18 -39l-14 -26 q-6 -12 -46 -53q-10 -16 -34 -41q-6 -6 -17 -27l-14 -29q-82 -94 -229 -299q-7 -8 -7 -43zM236 961q0 92 65.5 167.5t157.5 75.5q31 0 60.5 -15t29.5 -42v-121q0 -23 -58.5 -95.5t-76.5 -72.5h-121q-39 0 -53 74q-4 23 -4 29zM524 78q0 -27 11 -45q88 -201 268 -201 q76 0 157.5 44t118.5 108q96 168 97 268q0 141 -121 254q-98 31 -164 31h-4q-8 -2 -90 -19q-20 -4 -23 -4q-39 -8 -121 -104l-30 -50q-27 -35 -58 -96l-39 -180q-2 -4 -2 -6zM700 137q0 53 19 105l31 37q76 92 133 92q84 0 116 -74v-53q0 -80 -55 -148q-57 -74 -135 -73 q-109 -1 -109 114z" />
<glyph unicode="&#x26;" horiz-adv-x="1271" d="M20 397q0 -172 160 -311q16 -18 49 -45q70 -35 213 -35q92 0 236 96q8 4 31 39q18 27 36 27h7q4 -2 6 -2q123 -143 260 -143q68 0 94 16q135 109 135 235q0 100 -78 101q-37 0 -65 -35q-8 -8 -39 -68q-12 -23 -35 -41q-8 -4 -39 -4q-35 0 -90 38t-63 71v51q0 41 20 123 q41 162 96 221q20 23 45 23t65 -61.5t83 -61.5q70 0 70 96q0 82 -59.5 158t-139.5 76q-94 0 -195 -121q-55 -68 -84 -181q-23 -92 -37 -92q-23 0 -77 96.5t-54 116.5q0 33 50 72q27 16 73 59q104 137 105 291q0 53 -25 119q-4 8 -12 31l-17 37q-8 18 -12 32l-6 13l-33 32 l-14 7q-29 8 -107 32q-31 10 -67 11q-123 0 -191 -115q-55 -94 -55 -227v-70q0 -18 25 -96q2 -8 16 -31l12 -21q4 -10 6 -26v-33l-2 -14q-2 -6 -112 -90q-82 -63 -133.5 -175t-51.5 -221zM211 420q0 180 154 276q16 8 34 9q20 0 27.5 -12.5t13.5 -26.5l19 -35 q8 -20 29.5 -55t82.5 -121q68 -96 66 -119q0 -16 -14 -33q-90 -104 -181 -104q-186 -1 -229 151v35q-2 23 -2 35zM436 1184q0 131 94 131q45 0 70 -43q23 -35 23 -84q0 -63 -35 -133q-41 -80 -99 -80h-10q-6 2 -10 2q-33 66 -33 207z" />
<glyph unicode="'" horiz-adv-x="1024" d="M240 1300q0 -6 2 -14l4 -16v-2q0 -2 3 -9.5t3 -11.5q14 -55 65 -71h11q6 -2 10 -2q10 0 16 2h11q6 0 14 4q6 2 8 -2q10 -35 23 -35q6 0 14 10q2 4 2 -8q0 -45 -59 -141q-29 -47 -58 -80v-2q-6 0 -6 -15v-2q0 -6 2 -8q8 -33 41 -39q6 -2 10 -2q6 0 19 4q25 14 37 33 q39 47 75 121q59 123 60 190v31q0 143 -105 190q-23 10 -45 11q-74 0 -129 -58q-29 -29 -28 -78z" />
<glyph unicode="(" horiz-adv-x="507" d="M20 639l105 -416l41 -84q68 -141 86 -168q70 -106 139 -106q41 0 67.5 30.5t26.5 71.5q0 47 -69 135q-27 35 -78 138q-27 55 -45 96q-33 106 -80 319v328q0 2 12 64q4 23 19 79q6 16 20 60l58 184q8 27 18 60q18 41 64.5 116.5t62.5 114.5q0 6 2 14v15q0 84 -76 84 q-119 0 -291 -420q-45 -111 -57 -228l-8 -79q-4 -41 -17 -80v-328z" />
<glyph unicode=")" horiz-adv-x="493" d="M20 1702q0 -33 70 -133q31 -45 90 -150q113 -293 113 -598q0 -332 -193 -676q-71 -75 -71 -163q0 -39 21.5 -74t58.5 -35q47 0 98 57q39 47 61 103l90 217q12 35 39 104q23 113 72 336v281q-18 121 -55 272q-4 20 -56 154l-57 151l-57 111q-66 129 -127 129 q-37 0 -67 -24.5t-30 -61.5z" />
<glyph unicode="," horiz-adv-x="403" d="M20 186q0 -100 123 -161q29 -20 29 -41q0 -47 -56.5 -129t-56.5 -127q0 -63 93 -64q109 0 174 156q55 129 55 246q0 55 -19 127q-23 88 -55 108q-23 12 -84 43l-12 6h-55l-13 -6q-25 -12 -84 -43q-39 -20 -39 -115z" />
<glyph unicode="." horiz-adv-x="348" d="M20 156q0 -156 148 -156q74 0 115 48t41 124q0 164 -150 164h-27q-127 -39 -127 -180z" />
<glyph unicode="/" horiz-adv-x="1175" d="M20 -8v-55q0 -20 43 -25h50q80 0 100 41q92 195 193 385q6 18 47 96l450 873q6 8 17 24l55 109q12 25 35 69l20 39q12 25 72 113l18 39q8 23 31 63v17q0 55 -94 63q-23 2 -39 2q-43 0 -68 -41q-63 -162 -162 -334l-92 -161q-143 -252 -245 -484q-66 -150 -166 -319 q-23 -57 -80 -168q-70 -102 -137 -234q-20 -53 -48 -112z" />
<glyph unicode="0" horiz-adv-x="1079" d="M20 717q0 -176 99 -387q111 -238 262 -299q61 -25 184 -25q145 0 193 33q297 274 297 766q0 248 -133 455q-150 231 -383 231q-225 0 -381 -266q-18 -27 -54 -80q-29 -45 -36 -88q-48 -238 -48 -340zM213 743q0 258 137 435q43 55 77 71.5t105 16.5q98 0 146 -17l72 -71 q8 -8 32 -41l80 -168q18 -39 19 -142v-90q-2 -20 -2 -30v-19q-4 -14 -7 -33l-2 -26q-2 -39 -8 -70q-31 -186 -184 -319q-29 -25 -41 -25h-199q-37 27 -104 88l-8 16q-23 33 -58 105q-55 157 -55 319z" />
<glyph unicode="1" horiz-adv-x="1013" d="M18 90q0 -45 35 -57q61 -23 97 -23q29 0 77 -6q27 -2 17 -2q12 -2 32.5 -13.5t36.5 -11.5q35 0 68 29h240q25 14 57 14q53 0 119 -6q43 -4 61 -4q45 0 89 25.5t44 66.5q0 37 -30.5 74t-67.5 37h-272l-3 4q-4 4 -6 8l-8 17v583q10 23 10 45v48q0 27 -5 79t-5 78q0 27 5 78 t5 78q0 184 -106 211q-29 0 -82 3t-76 3l-96 2h-66h-4q-150 0 -149 -109q0 -33 24.5 -59.5t57.5 -26.5h297l6 -12l2 -29q2 -20 4 -65l2 -80v-68q0 -6 2 -18v-18q0 -109 -6 -328t-4 -332q-2 -33 -23 -104h-45q-29 0 -84 5t-84 5h-43q-55 -2 -41 -2q-61 6 -77 -80 q-4 -20 -5 -39z" />
<glyph unicode="2" horiz-adv-x="1030" d="M20 121q0 -104 95 -105q37 0 91 57.5t91 57.5q29 0 84 -25q6 -4 27 -14l45 -22q25 -12 71 -37q-8 0 33 -8l21 -5q10 -2 12 -2q10 -4 51 -24q29 -16 57 -17q29 0 56 15q45 25 51 26q109 39 155 103.5t46 179.5v47q0 102 -72 103q-68 0 -84 -93q-12 -70 -16 -77 q-12 -43 -37 -64q-70 -16 -129 -16t-133 37q-18 10 -125 67q-43 18 -95 19q-41 0 -77 -11q-10 2 -11 13v14q0 4 2 10v4l111 121l12 6q68 35 172 72q125 25 246 98q207 127 207 412q0 57 -4 84q-25 164 -168 260q-131 86 -305 86q-127 0 -236.5 -64.5t-163.5 -177.5 q-49 -102 -49 -155q0 -72 39 -133q43 -72 111 -72q72 0 110.5 53t38.5 127q0 35 -41 105q-8 14 -8 22q0 31 33 53q72 33 178 33q190 0 246 -88q39 -61 39 -74v-176l-2 -6q-2 -6 -7 -10q-68 -113 -159 -135q20 0 -72 -7q-10 -2 -33 -4q-12 -4 -14 -6q-41 -29 -131 -78 q-66 -27 -94 -49q-264 -201 -265 -530z" />
<glyph unicode="3" horiz-adv-x="1013" d="M20 326q0 -92 78 -179.5t170 -113.5q-12 0 37 -8q35 -6 35 -7q8 -2 51 -24q31 -16 53 -17h154q25 16 80 41q119 37 182 113q53 59 105 191q10 27 22 79q2 8 2 17v200q0 121 -121 232l-16 16l-21 19q-6 4 -26 22l-143 56q-16 6 -17 26q0 27 55 86q193 207 193 287 q0 96 -88 96h-361q-51 -8 -133 -8q-16 0 -51 4t-51 4q-84 0 -117 -135q-8 -37 -31 -129q-4 -12 -8 -31v-6q-2 -4 -2 -6q0 -100 94 -100q57 0 82 59q10 25 21 111q4 31 20 30h332q0 -33 -49 -96q-16 -20 -41 -65q-4 -6 -8 -15q-102 -109 -109 -117q-70 -82 -69 -133 q0 -80 92 -80q70 0 116 41h121q86 -72 119 -124q43 -70 43 -164q0 -184 -129 -281q-14 -12 -51 -23.5t-53 -23.5h-154q-76 33 -84 37q-51 29 -51 63q0 18 12 52t12 53q0 63 -32.5 113.5t-91.5 50.5q-173 0 -173 -213z" />
<glyph unicode="4" horiz-adv-x="1079" d="M20 467q0 -35 31 -63.5t66 -28.5h360q29 10 78 10h16l11 -2l16 -16v-119l-16 -17q-66 -6 -160 -32q-49 -29 -49 -101q0 -33 23.5 -54t56.5 -21h473q82 0 82 83q0 80 -56 99q-29 10 -129 10q-41 16 -41 41v102q0 10 27 19q35 2 106 12l48 2h28q63 16 64 78 q0 33 -23.5 69.5t-56.5 36.5h-180v746q0 8 -11 49q-2 6 -18 64q-20 74 -109 73q-63 0 -102 -65q-12 -18 -61 -113q-74 -102 -306 -528q-47 -86 -168 -314v-20zM285 575v13q0 35 75 186q43 86 119 211q106 170 137 170q0 -49 -6 -147.5t-6 -147.5q0 -27 5 -80t5 -80 q0 2 2 -26q4 -70 -26 -90q-262 -16 -234 -17h-63q-8 2 -8 8z" />
<glyph unicode="5" horiz-adv-x="958" d="M20 334q0 -78 76 -178q98 -131 205 -133q39 -2 100 -35q18 -10 48 -11q25 0 133 41q4 0 34 7q49 8 37 8q27 14 80 41q92 66 150 211q53 131 53 256q0 121 -115 366q-57 59 -119 113q-43 12 -129 35q-37 6 -61 6h-39q-33 0 -94.5 -17.5t-93.5 -17.5q-33 0 -33 61v5l12 100 q4 33 4 51q14 25 74 25h248q20 -8 55 -8q43 0 127 2q74 14 74 84q0 131 -164 131q-20 0 -60 -4.5t-61 -4.5q-39 0 -115.5 8.5t-115.5 8.5q-164 0 -213 -66q-41 -119 -41 -276q0 -27 5 -80t5 -80q0 -41 -9 -122t-9 -122q0 -33 24.5 -60.5t57.5 -27.5q35 0 63 37q6 8 39 68 q29 37 129 102q8 8 16 8h168q25 0 72 -51t100 -168l4 -12v-217q0 -88 -135 -193q-18 -14 -55 -16t-45 -5t-39 -22q-23 -14 -37 -14q-35 0 -94 31q-72 37 -68 67q2 14 13.5 48t11.5 53q0 147 -123 147q-72 0 -111 -52t-39 -128z" />
<glyph unicode="6" horiz-adv-x="991" d="M20 559q0 -8 7.5 -36.5t9.5 -35.5q41 -225 137 -335q115 -131 330 -132q213 0 325 138q94 111 138 338v28q0 84 -56 207q-59 131 -129 174q-35 20 -112.5 47t-112.5 49h-111q-14 0 -36 -16q-31 -23 -37 -24q-47 -20 -92 -35l-13 -4h-20q0 98 102 223q100 119 199 153h12 q23 0 29 -16q37 -154 147 -154q143 0 144 142q0 117 -78 180q-74 57 -193 57q-82 0 -245 -82l-29 -28q-20 -20 -57 -61.5t-58 -61.5q-18 -29 -49 -72q-6 -6 -15.5 -20.5t-15.5 -20.5q-121 -201 -121 -555v-47zM221 543q0 160 121 233q33 25 47 25h184q55 0 128 -81t73 -136 v-185l-8 -16q-39 -76 -111.5 -123t-156.5 -47q-66 0 -76 10q-53 35 -84 58q-43 33 -70 73q-47 74 -47 189z" />
<glyph unicode="7" horiz-adv-x="917" d="M20 1350q0 -49 13 -76v-344q0 -37 29.5 -66.5t66.5 -29.5q72 0 88 100q4 25 4 49q0 20 -5 62t-5 63q0 68 44 118t110 50q37 0 55 -16l121 -113q18 -16 49 -17q-10 0 47 -4l29 -2q29 -4 28 -20q0 -70 -67 -176l-111 -166q-8 -25 -31 -72q-16 -16 -41 -55 q-104 -295 -104 -481v-58q0 -43 51 -94q16 -16 45 -16q39 0 69 31.5t36 72.5v16q2 16 2 29l2 68q2 45 4 108q8 96 63 207q51 94 105 189q111 209 151 399q16 74 25 145l2 17v24q0 168 -86 168q-41 0 -76 -77.5t-71 -77.5q-31 0 -136.5 93t-173.5 93q-23 0 -63.5 -20.5 t-63.5 -20.5q-20 0 -51 16.5t-53 16.5q-100 0 -101 -133z" />
<glyph unicode="8" horiz-adv-x="1087" d="M20 432q68 -412 549 -412h21q10 0 31 3h49q74 14 225 96q168 152 168 364q0 154 -72 260q-8 12 -69 52q-51 33 -52 57v12q47 29 88 113t41 141q0 104 -59 207q-66 109 -158 141q-168 57 -213 58q-143 0 -260 -60q-131 -66 -176 -190q-12 -35 -33 -127q-4 -14 -8 -33v-35 q0 -117 70 -170l26 -20q33 -25 33 -49q0 -20 -43 -52q-25 -14 -61 -45q-97 -124 -97 -286v-25zM203 459q0 145 119 217q102 61 131 61h186q29 0 125 -57q106 -63 106 -105v-167l-8 -17q-33 -63 -92 -108q-66 -51 -131 -52h-186q-78 0 -148.5 54.5t-99.5 130.5v22 q-2 14 -2 21zM285 1118q0 100 86 160q76 53 178 53q100 0 174 -47q84 -53 84 -149q0 -170 -168 -213q-8 -2 -39 -2h-39q-276 -1 -276 198z" />
<glyph unicode="9" horiz-adv-x="983" d="M18 991q0 -180 135.5 -333.5t313.5 -153.5q76 0 178 39q8 4 49 28q31 18 54 19q0 -86 -114 -231.5t-196 -145.5q-25 0 -41 31q-8 29 -18 55q-29 84 -121 84q-141 0 -141 -147q0 -90 33 -125q23 -31 83 -78q16 -10 35 -10h217q80 0 207 129q100 102 199 290l18 33 q25 45 33 133q6 76 16 113v264q0 -8 -16 72q-6 29 -22 104q-35 135 -164 232.5t-271 97.5q-221 0 -352 -178q-35 -35 -41 -56l-72 -251q-2 -6 -2 -15zM197 1036q0 61 57 133q47 59 63 74q47 41 172 41h39q51 -2 37 -2q203 -86 203 -317q0 -90 -27.5 -141.5t-103.5 -102.5 q-37 -25 -55 -25h-152q-31 0 -65 25q-27 25 -56 47q-76 61 -96 119q-16 47 -16 149z" />
<glyph unicode=":" horiz-adv-x="348" d="M20 150q0 -156 148 -156q74 0 115 48t41 124q0 164 -150 164h-27q-127 -39 -127 -180zM20 915q0 -156 148 -155q74 0 115 48t41 124q0 164 -150 164h-27q-127 -40 -127 -181z" />
<glyph unicode=";" horiz-adv-x="403" d="M20 170q0 -100 123 -162q29 -20 29 -41q0 -47 -56.5 -129t-56.5 -127q0 -63 93 -63q109 0 174 155q55 129 55 246q0 55 -19 127q-23 88 -55 109q-23 12 -84 43l-12 6h-55l-13 -6q-25 -12 -84 -43q-39 -20 -39 -115zM35 862q0 -70 40 -112.5t109 -42.5q72 0 114 49t42 123 q0 166 -150 165h-14q-8 -2 -12 -2q-129 -41 -129 -180z" />
<glyph unicode="?" horiz-adv-x="854" d="M20 1135q0 -199 156 -199q141 0 141 131q0 39 -45 98.5t-45 83.5v13q0 6 11 10q104 57 180 57q113 0 182.5 -73.5t69.5 -186.5q0 -121 -80 -158l-176 -80q-90 -41 -90 -229q0 -139 92 -139q82 0 86 129v55q12 20 92 66q47 27 94 51q55 35 78 72q66 109 65 256v30l-2 23 l-16 61q-6 23 -22 82l-9 17l-129 151q-18 23 -123 41q-88 16 -137 16q-162 0 -267.5 -108.5t-105.5 -269.5zM283 213q0 -63 39 -123q43 -68 104 -67q63 0 105 53t42 119q0 68 -37.5 112.5t-103.5 44.5q-61 0 -105 -39t-44 -100z" />
<glyph unicode="A" horiz-adv-x="1247" d="M18 111v18q2 10 2 16q35 45 160 88q27 10 45 58v-1q3 0 70 253l29 108q2 6 18 72q12 49 47 176q53 160 156 479q25 90 92 90q63 0 96 -82q10 -43 33 -126q4 -10 33 -144q18 -86 47 -137l192 -729q8 -35 64 -51q27 -8 82 -21q39 -25 39 -76q0 -100 -109 -100q-39 0 -104 4 q-76 4 -107 4q-84 2 -110 13q-51 20 -52 88v34q14 18 67.5 43t61.5 45q0 18 -16 89q-6 29 -18 57q-18 47 -37 47h-322q-4 0 -20.5 -13.5t-18.5 -17.5l-57 -121v-12q-2 -10 -2 -14q0 -37 35 -58q57 -33 69 -38q18 -18 19 -62q0 -88 -109 -88q-18 0 -57 4t-57 4 q-27 0 -80.5 -7t-79.5 -7q-45 0 -73 34t-28 81zM492 623q2 -9 2 -13q27 -16 92 -16q-8 0 164 16l8 8q0 6 2 13v12q0 68 -90 338q-23 68 -37 96q-6 0 -19 -24q-23 -63 -61 -168l-12 -33q-49 -131 -49 -217v-12z" />
<glyph unicode="B" horiz-adv-x="1208" d="M20 106q0 -47 29 -77.5t76 -30.5h25h133l540 4q76 14 209 88q70 61 113 172q41 104 41 205q0 111 -66 225l-53 53q-35 35 -35 52q0 31 55 96q49 74 50 180q0 334 -394 397h-41q-57 0 -169.5 -12t-170.5 -12h-124q-59 16 -119 16q-98 0 -99 -100q0 -109 134 -109 q16 0 47.5 4.5t48.5 4.5h14q53 0 53 -25l-8 -1042h-16q-12 -2 -19 -2q-25 0 -70.5 5t-70.5 5h-49q-64 -27 -64 -97zM502 211v457q0 8 24 24h6q8 0 25.5 -4t26.5 -4q25 0 47 16h231q16 0 41 -24l96 -96q18 -18 19 -56q-2 -100 -4 -116q-6 -70 -33 -111q-41 -63 -141 -102 q-25 -2 -140 -11q-86 -6 -139 -6q-59 0 -59 33zM502 909v353h256q61 -10 80 -15q49 -12 71 -33q16 -18 41 -57q8 -8 8 -16v-135q0 -61 -104 -121q-111 -8 -264 -8h-25q-63 0 -63 32z" />
<glyph unicode="C" horiz-adv-x="999" d="M20 604q6 -70 41 -209q23 -59 70 -153q9 -16 19 -39q125 -209 413 -209q156 0 287 158q125 152 125 311q0 125 -76 125q-43 0 -68 -41q-45 -127 -69 -176q-88 -178 -244 -178q-6 0 -41 2q-211 51 -256 385q-2 12 -8 41v256q0 115 58.5 228.5t152.5 170.5q4 2 6 2h135 q8 0 25 -8q119 -57 151 -146q4 -12 25 -80q6 -39 25.5 -119.5t74.5 -80.5q37 0 64.5 45t27.5 84v248q0 25 -8 49v4q0 14 5.5 44t5.5 44q0 125 -82 125q-37 0 -91 -76q-10 -14 -22 -14h-8q-158 90 -269 90q4 0 -45 2h-2q-34 0 -147 -62l-27 -14q-35 -31 -82 -90 q-51 -66 -61 -102l-88 -289q-6 -66 -17 -113v-215z" />
<glyph unicode="D" horiz-adv-x="1239" d="M20 139q0 -72 64 -108q51 -31 127 -31h35l57 12q57 12 62 13q51 0 124 6q18 2 37 2l144 4q199 6 344 123q33 27 57 57q145 272 146 639q0 162 -70 320q-80 180 -213 235q-82 20 -240 72h-280q-25 -8 -60 -8q-37 0 -133 4q-63 4 -76 4q-125 0 -125 -109q0 -45 30 -76.5 t75 -31.5h168q8 0 16 -9q8 0 8 -8l-4 -383v-401l4 -225l-16 -15q-4 -2 -12 -2h-21q-23 0 -65.5 5t-65.5 5q-117 0 -117 -94zM502 256l6 1001l10 17l14 2h23q262 0 372.5 -102.5t110.5 -360.5q0 -311 -94 -461q-53 -84 -164 -112q-66 -16 -202 -17q-18 0 -47 9.5t-29 23.5z " />
<glyph unicode="E" d="M20 1374q0 -108 123 -108h2q23 0 67 5t67 5h22q12 0 16 -2l17 -14v-52q0 10 2 -57q0 -33 -10 -61l8 -801q0 -47 -25 -64q-20 0 -62 -8t-63 -8h-4q-31 0 -47 8h-12q-86 0 -86 -125q0 -61 47 -80q20 -10 160 -14q31 0 59 10h682q23 -8 41 -8h43q164 0 164 158q0 49 -12 75 v281q0 43 -28 81t-69 38q-35 0 -59.5 -26.5t-24.5 -61.5v-201q0 -14 -16 -39q-41 -78 -117 -82h-12q-53 0 -152 -14h-206l-17 16l6 467q2 6 11 6h88q23 0 65 -49q29 -33 45 -71v-64q0 -162 98 -162q63 0 64 66v672q0 81 -72 81h-2q-66 0 -73 -90q-2 -53 -23 -135 q-14 -23 -43 -37q-45 -23 -51 -26h-105l-8 8l-2 10q-4 23 -14 78v6q0 8 4 24.5t4 24.5q0 49 2 92q2 61 6 95v45l8 8h392q27 0 73 -55q35 -53 35 -64v-217q0 -31 26.5 -52.5t57.5 -21.5q88 0 88 82v432q0 33 -20.5 67t-51.5 38q-33 -1 -80 -1q-142 0 -417 5q-270 4 -498 4 q-111 0 -111 -117z" />
<glyph unicode="F" horiz-adv-x="1216" d="M20 117q0 -33 20.5 -68t51.5 -35h498q8 4 82 11q25 2 35 4l47 2h28q66 16 66 88t-103 92q-23 4 -47 4q-18 0 -52 -4t-52 -4q-53 0 -68 24q-2 23 -10 144q-6 86 -6 141v92q4 27 25 41h43q102 0 133 -90v-12q2 -12 2 -21l2 -51q3 -87 4 -87v3q10 -88 84 -88q86 0 86 160v53 q0 29 -15 51v475q0 31 -26.5 51.5t-56.5 20.5q-80 0 -80 -139v-53l-11 -25q-27 -63 -61 -63h-104q-25 0 -25 90q0 18 4 53t4 53q0 29 -5 88.5t-5 87.5q0 2 2 15v20v25l8 8q20 2 137 10q82 6 136 6q143 0 200 -71q29 -37 29 -50v-297q0 -20 28.5 -41.5t51.5 -21.5 q37 0 64.5 45t27.5 84v440q0 39 -33 72t-72 33l-761 -8q-51 16 -185 16q-49 0 -81.5 -38t-32.5 -89q0 -98 102 -98q23 0 68 5t67 5h31l22 -2l9 -8l16 -80v-619q-8 -33 -8 -51q0 -14 2 -24l6 -29v-248l-8 -8q-35 -2 -43 -2q-25 0 -73 5t-73 5q-125 0 -125 -98z" />
<glyph unicode="G" horiz-adv-x="1159" d="M20 602q16 -117 41 -225q33 -143 154 -260t266 -117q25 0 43 -2q37 0 119 57q47 33 76 33q12 0 20 -12l19 -27q29 -41 67 -41q45 0 73 38t28 85q0 16 -4 49t-4 49v41q0 20 8 43v232q0 35 16 41q193 0 193 104q0 88 -131 88q-18 0 -56.5 -4t-56.5 -4q-43 0 -131 12.5 t-131 12.5q-37 0 -58.5 -31t-21.5 -70q0 -96 170 -108l14 -17q2 -4 2 -20v-25q0 -121 -65 -213q-72 -104 -189 -104q-109 0 -192 135q-76 123 -76 227v394q8 31 33 112q70 217 235 217q162 0 213 -108q18 -41 49 -172q23 -98 86 -99q74 0 95 127q2 57 18 170v226 q0 65 -66 65h-2q-51 0 -85.5 -53t-43.5 -53q-23 0 -45 20l-38 35q-100 66 -189 66q-147 0 -278 -166q-121 -152 -142 -308q-8 -63 -33 -225v-215z" />
<glyph unicode="H" d="M20 117q0 25 17.5 66.5t38.5 41.5h121q10 0 24 15v417q0 137 8 418q8 25 9 62v114l-25 23q14 0 -13.5 2l-82.5 6h-25q-63 6 -63 119q0 39 21.5 68.5t58.5 29.5h376q39 0 68 -32.5t29 -73.5q0 -98 -99 -113q-27 -4 -61 -6q-16 -16 -16 -23v-338q0 -16 30 -16q12 0 39 5 t39 5q14 0 42 -5t42 -5q12 0 39 5t39 5q18 0 35.5 -13t33.5 -13q72 0 91 63q10 33 10 123v199q-2 8 -45 16q-18 2 -53 10q-94 27 -95 109q0 98 156 98q20 0 60 -4t61 -4q18 0 52 4t52 4q197 0 197 -133q0 -92 -133 -92h-60l-12 -8v-856q-12 -25 -12 -70q0 -90 24 -100 q123 0 172 -50q20 -20 21 -57q0 -45 -31 -83t-74 -38h-280q-14 -4 -39 -12h-4q-57 0 -103.5 35t-46.5 90q0 61 52 84q25 10 102 16l22 23l17 80v329q0 10 -14.5 23.5t-16.5 17.5q-53 0 -158.5 8.5t-158.5 8.5h-35q-20 -2 -33 -2q-25 -10 -24 -39v-434l16 -15q162 0 162 -108 q0 -92 -99 -101q-188 -16 -301 -16q-82 0 -114 18q-50 25 -50 99z" />
<glyph unicode="I" horiz-adv-x="925" d="M20 102q0 -116 153 -116h3q29 0 88.5 4t87.5 4h62h13q30 0 50 -8h281q59 0 102 32.5t43 90.5q0 37 -38 67.5t-77 30.5h-198l-25 26v537q8 27 8 68q0 39 -8 69v344l8 9h41q25 0 74 -5.5t74 -5.5q125 0 125 94q0 100 -135 109q-35 0 -106 2t-97 16h-328q-25 12 -59 13 q-51 0 -90 -29q-45 -31 -45 -80q0 -45 42 -86t87 -41h217l8 -12q0 -4 2 -12v-13q0 -43 -14 -71v-906q0 -10 -45 -18q-27 -6 -52 -6q-20 0 -57 5t-55 5q-57 0 -98.5 -31t-41.5 -86z" />
<glyph unicode="J" horiz-adv-x="1150" d="M20 301q0 -156 115 -248q106 -84 266 -84q188 0 279 146q43 70 102 311l-8 817l17 17l18 2h27q25 0 76 -5.5t75 -5.5q94 0 139 58v34q0 94 -129 125h-88h3l-64 2q-37 0 -66 -10h-344q-33 8 -78 8q-59 0 -100 -29.5t-41 -86.5q0 -55 49 -92q59 -25 107 -25h39q23 0 66.5 5 t66.5 5q6 0 26 -2l17 -16v-43q0 6 2 -54q0 -29 -10 -55l8 -569q-4 -10 -10 -80q0 -12 -2 -37l-3 -45q-2 -45 -2 -31q-14 -41 -47 -80q-47 -55 -73 -55h-160q-10 0 -21.5 12.5t-11.5 22.5v4q8 16 8 33q82 72 82 139q0 66 -47 124t-110 58q-33 0 -52 -16q-121 -111 -121 -254z " />
<glyph unicode="K" d="M20 1356q0 -80 70 -84l53 -4q33 -4 45 -23q8 -84 9 -203v-49q0 -23 -13 -45v-745l-12 -8q-143 -1 -143 -97q0 -104 88 -104q41 0 121.5 8t121.5 8q18 0 56.5 -4t56.5 -4q53 0 93 28.5t40 80.5q0 29 -18.5 54t-46.5 25h-144l-16 21l-2 20q-4 41 -14 148v53q0 102 16 139 q9 25 77 95q64 66 76 65h1q18 -8 63 -92q37 -70 131 -246q37 -68 37 -63l20 -45q12 -27 13 -56q0 -27 -68.5 -42t-68.5 -66q0 -119 172 -119q23 0 64.5 4t64.5 4t64.5 -4t64.5 -4q141 0 141 119q0 51 -72 76q-20 4 -114 14l-41 39q-72 145 -199 368q-33 57 -51.5 99.5 t-44.5 101.5q-25 25 -25 33v10q-2 8 -2 12q0 39 76 119q39 33 110 107q39 57 136 160l65 4q121 8 121 102q0 104 -117 104q-23 0 -64.5 -5t-64.5 -5t-69 5t-68 5q-131 0 -131 -86q0 -57 63 -114q10 -10 11 -17q0 -39 -27 -65l-143 -144q-8 -31 -37 -65q-12 -12 -36 -39 t-36 -39l-27 -27q-12 -12 -22 -20l-10 -10h-33l-16 47v233q10 35 16 113l8 8q6 0 29 4q4 0 13 2t13 2q12 0 58 11q16 4 55 12q41 31 41 78t-38 73.5t-87 26.5q-23 0 -67 -5t-66 -5q-31 0 -92.5 13t-91.5 13q-135 0 -136 -114z" />
<glyph unicode="L" horiz-adv-x="1222" d="M20 1366q0 -39 25 -71.5t64 -32.5h217l22 -29q2 -4 2 -27v-106q0 -45 -10 -74v-616q10 -25 10 -52v-79q-2 -20 -2 -31q-25 -41 -65 -41q-23 0 -68 13t-68 13q-118 0 -118 -106q0 -55 37.5 -87t91.5 -32q43 0 127 8.5t127 8.5q29 0 83 -12.5t83 -12.5h4q14 4 39 12h473 q41 0 75 54q29 47 29 92q0 35 -12 59v361q0 96 -80 96q-72 0 -88 -105q-2 -55 -17 -198q-14 -113 -83 -131h-33l-51 -2q-8 -2 -43 -5l-41 -2q-12 -2 -37 -13t-39 -11q-8 2 -45 18q-4 2 -23 4l-33 4q-41 4 -41 15v794q4 10 11 86q2 29 4 41l2 54v34l8 9h234q79 0 79 84 q0 116 -177 116h-3q-23 0 -64.5 -4t-64.5 -4q-20 0 -60 4t-61 4q-20 0 -63 -4t-64 -4q-27 0 -82 8.5t-81 8.5q-129 0 -130 -109z" />
<glyph unicode="M" horiz-adv-x="1247" d="M18 117q0 70 74 86l45 10q27 10 27 35l-4 241v54q-2 72 -2 55v107v8q2 8 2 14l4 76v22q2 59 2 86v226v53q-2 70 -2 53q-8 18 -77 33.5t-69 89.5q0 39 22.5 69.5t59.5 30.5h234q115 0 141 -192q4 -25 9 -72t10 -72q16 -121 63 -432q10 -66 27 -143l14 -68q6 -29 8 -30 l17 -39q14 4 51 235q18 119 63 447q16 123 54 295q30 72 72 72q4 0 7 -1q-12 0 43 2q28 1 50.5 1t40.5 -1l34 -2q162 -10 162 -108v-19q-2 -10 -2 -16q-20 -29 -53 -41l-66 -25q-4 0 -6 -2l-2 -4v-794q2 -14 8 -39q0 -86 8 -135v-35q2 -6 72 -21q66 -20 66 -108 q0 -90 -95 -101q-35 -4 -55 -4q-23 0 -64.5 5.5t-64.5 5.5q-16 0 -48 -4.5t-48 -4.5q-55 0 -100 41q-10 8 -17 9h-2l-6 -3q-47 -63 -98 -63q-43 0 -88 63q-8 10 -21 11h-4l-4 -2l-14 -15q-45 -45 -66 -45h-233q-25 -12 -68 -12q-111 0 -111 117zM334 248q0 -10 14 -24.5 t25 -14.5l104 -25q8 -2 8 11v12q0 16 -41 250q-12 96 -55 344q-14 76 -47 272l-8 8v-833zM748 174q29 0 88 21q68 25 67 45v258q-10 31 -10 63v121q0 33 10 63v385q-4 0 -45 -223q-35 -184 -67 -368q-43 -248 -43 -365z" />
<glyph unicode="N" d="M20 109q0 -68 80 -93h-4q0 -1 109 -4l63 -2q10 0 25 -2h16h31q45 0 147 10q85 7 137 7h13q66 16 65 106v29l-32 33q-8 8 -97 32h-20q-12 0 -31.5 -9t-32.5 -9q-16 0 -37.5 16.5t-21.5 32.5v209q8 23 8 41v84q0 20 -8 43v409h8l25 -53q41 -90 125 -280l57 -131 q26 -80 96 -234l80 -256q10 -35 45 -61.5t72 -26.5q43 0 76 30.5t33 73.5l-9 1162l9 8h47q106 0 137 49q0 6 2 18v19q0 125 -160 125q-39 0 -67 -15h-312q-27 0 -46 -20t-19 -47q0 -76 71 -105q45 -18 138 -24l20 -14v-578q12 -12 12 -41v-35v-51l-2 -51q-2 -51 -2 -35 q-2 0 -2 -4q0 -2 -2 0q-8 8 -16 24q-35 72 -84 195l-76 190q0 -12 -8 22l-8 34q-10 25 -39 84q-12 23 -41 84q-20 61 -78 217l-18 47q-41 104 -113 104h-231q-47 0 -81 -29.5t-34 -76.5q0 -86 49 -86h145l17 -14q0 -139 8 -418t8 -418q0 -23 -6 -84q-3 -34 -3 -60 q0 -13 1 -24l-16 -16h-27l-82 -4q-41 -2 -29 -3q-51 -6 -80 -104v-20z" />
<glyph unicode="O" horiz-adv-x="1112" d="M20 569q0 18 11 -32q12 -59 14 -64q43 -147 152 -291q41 -55 71 -69q10 -4 58 -29l55 -29q106 -55 174 -55q45 0 82 18l74 37q299 117 360 523q16 106 16 221q0 195 -104 422q-23 23 -96 143q-4 4 -72 55q-151 115 -276 115q-332 0 -478 -475q-10 -33 -34 -137 q-2 -10 -7 -23v-330zM197 770q0 174 86 354q104 217 264 217q49 0 94 -28l78 -62q119 -94 153 -250l23 -102v-264q0 -31 -12 -55q-18 -43 -21 -50q-37 -121 -76 -180q-69 -108 -153 -108h-2h-201q-37 0 -106 88q-61 76 -78 127q-49 149 -49 313z" />
<glyph unicode="P" horiz-adv-x="1183" d="M20 125q0 -57 38 -91t96 -34q78 0 155 41h248q66 -18 119 -18q76 0 123 65v37q0 37 -22.5 75t-57.5 38h-209l-2 4l-6 6l-8 16v201q6 35 16 104l8 9h297q104 0 224 128t120 232v168q0 45 -49 144.5t-86 129.5q-72 61 -162 80l-96 21q-10 2 -16 2h-344q-41 -8 -60 -8 q-25 0 -75 5t-74 5h-43q-63 0 -78 -12q-41 -35 -41 -97q0 -108 100 -108h2q18 0 54 4t55 4h47q16 -2 33 -41v-68q0 -55 -8.5 -166.5t-8.5 -166.5v-578l-16 -18h-209q-53 0 -61 -78q-3 -21 -3 -35zM492 1143v63v31q2 20 2 31l8 8h67q188 0 273 -31q141 -51 141 -207 q0 -164 -123 -225q-88 -45 -268 -45q-4 0 -17 2h-24h-33l-12 8v297q-14 22 -14 59v9z" />
<glyph unicode="Q" horiz-adv-x="1142" d="M20 569l56 -239q4 -8 24 -45q8 -16 19 -37l14 -31q51 -111 186 -184q127 -72 263 -72l8 -8q4 -145 65 -246q76 -123 211 -123q102 0 170 86q57 72 74 183q10 66 10 129v43q-2 55 -2 41q-14 96 -74 96q-74 0 -90 -96q-4 -49 -16 -177q-12 -96 -80 -96q-84 0 -84 217 q0 31 14.5 44.5t32.5 27.5q8 4 39 35q12 12 35 37q84 139 160 464v248q-12 63 -41 193q-10 14 -31 55q-92 207 -178 266q-20 14 -49 29l-33 16q-119 59 -195 60q-170 0 -301 -142q-111 -119 -166 -301q-14 -47 -24 -102l-10 -55q-6 -33 -7 -35v-281zM197 569v297l30 127 q47 195 209 275q16 8 25 8h153q51 0 129 -92q70 -84 86 -142l50 -176v-231l-41 -172q-18 -80 -72 -166q-4 -6 -16 -16h-9q-8 33 -39 96q-97 137 -210 137q-98 0 -191 -55q-25 -25 -41 -33h-2q-4 -2 -6 -2l-6 2q-49 70 -49 143zM340 270q0 18 31.5 47t50.5 29h88q14 0 55 -57 q25 -29 25 -84q0 -45 -70 -45q-53 0 -112 28q-68 35 -68 82z" />
<glyph unicode="R" d="M20 133q0 -41 27 -78q28 -39 63 -39h7q31 0 80 -2q63 -2 79 -2l99 -2q16 0 39 -2h24h23q170 0 170 96q0 78 -117 111q-23 4 -65 16q-51 14 -52 33v385l9 8q8 8 63 9h121q53 0 129 -17q10 -8 63 -96q78 -131 82 -334q0 -41 -2 -115q15 -98 185 -98h14h16q32 0 66 -6h4 q39 0 62.5 30.5t23.5 69.5q0 96 -103 129q-88 27 -94 107q-2 29 -6 65q-23 92 -41 150q-29 84 -63 139v19q0 39 43 73q63 51 69 60q57 74 58 233q0 240 -193 338q-141 72 -407 72q-55 0 -82 -15h-314q-71 0 -71 -93q0 -77 39 -87l129 -30l16 -17l12 -522l4 -457 q0 -8 -16 -24q-193 0 -193 -107zM397 891v352q0 33 84 33h37q207 0 336 -57q66 -49 66 -170q0 -147 -170 -199h-68q-20 0 -60 4t-61 4q-16 0 -50 -4t-50 -4h-47q-16 25 -17 41z" />
<glyph unicode="S" horiz-adv-x="1030" d="M20 1079q0 -199 170 -305q141 -86 355 -90q176 -4 243 -106q25 -37 25 -48v-143q-14 -41 -63 -121q-25 -27 -95 -35q-25 -4 -49 -20h-153q-25 8 -88 31q-98 35 -136 151q-6 74 -20 146q-18 88 -88 88q-84 0 -84 -80v-473q0 -37 27.5 -62.5t64.5 -25.5q35 0 55 26 q14 27 31 56q8 14 29 14q37 0 108.5 -40t108.5 -40h201q33 0 112 55l39 21q10 4 41 20q152 109 152 373q0 117 -64 205q-43 59 -154 151q-6 2 -14 9q-147 37 -340 49q-119 8 -174 49q-65 50 -65 161q0 91 73.5 152.5t163.5 61.5q133 0 262 -99q33 -25 54 -147 q18 -109 86 -109q31 0 53 25t22 55v377q0 43 -22.5 79t-61.5 36q-66 0 -92 -123h-8q-23 0 -57 22l-54 35q-6 4 -36 15l-52 18q-25 8 -90 31h-18q-70 0 -163 -51.5t-146 -108.5q-88 -160 -89 -285z" />
<glyph unicode="T" horiz-adv-x="1062" d="M20 969q0 -41 21.5 -78t60.5 -37q70 0 91 66q10 33 10 101v23v9q0 113 49 180q37 49 96 55q6 4 41 4q25 0 33 -4l8 -8v-1018l-24 -26h-193q-47 0 -55 -78q-2 -19 -2 -31q0 -47 82 -82q68 -31 122 -31q43 0 125 20.5t125 20.5q25 0 75 -13t75 -13q143 0 143 100 q0 115 -180 123q-45 2 -78 2l-16 16l-15 899q14 51 15 127l8 9q6 0 14 2h17q68 0 120 -35q61 -39 62 -103v-217q0 -37 29.5 -67.5t66.5 -30.5q41 0 66.5 36t25.5 79v407q0 41 -31.5 75t-72.5 34h-457q-23 12 -59 12q-37 0 -62 -12h-247q-31 0 -60 -45t-29 -78v-393z" />
<glyph unicode="U" d="M20 1380q0 -74 41 -84l132 -34v-895q14 -61 67 -177q133 -186 350 -186q145 0 277 90q49 35 101 131.5t56 157.5q2 35 15 63v619q12 25 12 74q0 18 -4 52t-4 52v21q0 12 16 16q80 6 101 14q51 20 51 78q0 49 -35 82q-41 35 -86 35h-18q-10 0 -27 2h-47q-25 0 -72 -5 t-72 -5q-12 0 -36.5 4t-36.5 4q-100 0 -101 -92q0 -92 154 -117q25 -10 25 -51v-4q-2 -18 -9 -47q1 -70 1 -154q0 -251 -9 -625q-14 -59 -69 -116q-66 -68 -115 -68h-143q-35 0 -95 76q-55 70 -55 108v473q-12 18 -12 56q0 147 12 309q2 39 12 43q84 6 115 18q55 23 55 91 q0 43 -27.5 71.5t-70.5 28.5h-360q-88 0 -89 -109z" />
<glyph unicode="V" horiz-adv-x="1230" d="M20 1397q0 35 23 63.5t57 28.5h361q39 0 64.5 -31t25.5 -69q0 -57 -47 -82q-18 -8 -98 -27q-8 0 -9 -8l109 -416v-57l100 -383q4 -14 15 -25q25 10 24 39l113 449q4 84 63 288q4 33 19 101q0 10 -11 12q-53 0 -95 36t-42 89q0 84 82 84h264q59 0 109 -25q59 -31 59 -84 q0 -59 -47 -82q-27 -12 -96 -18q-29 -23 -41 -55q-14 -61 -129 -531q-8 -39 -25 -114q-14 -66 -39 -109l-79 -377q-6 -35 -44 -61.5t-73 -26.5q-74 0 -131 72q-27 33 -37 96q-6 51 -12 105q-41 152 -119 456q-6 51 -25 152q0 10 -16.5 52t-16.5 52q-8 49 -36 178l-11 39 q-8 35 -12 41q-9 23 -29 31q-84 6 -116 23q-51 25 -52 94z" />
<glyph unicode="W" horiz-adv-x="1239" d="M18 1384q0 -37 42 -90t49 -86l73 -399q25 -127 70 -401q8 -80 37 -285q16 -92 65 -109q18 -8 47 -8q66 0 91 43q31 53 81 451l41 323q6 47 15 64h8q6 -8 16 -64q31 -156 49 -352q0 -37 7 -123q0 -8 2 -29q6 -100 26 -219q6 -33 21 -53q31 -41 76 -41q70 0 114 135 q31 94 60 275l20 131q8 55 43 188q25 166 88 506q4 18 15 37l18 31q22 35 22 68q0 87 -71 96l-150 16q-108 0 -108 -92q0 -39 16 -56q10 -10 47 -26q14 -8 27 -27v-59l-25 -197q-37 -291 -88 -514h-4q-20 0 -45 195q-16 145 -33 291q-23 184 -22 204v56q2 8 37.5 41.5 t35.5 80.5q0 80 -120 95q-16 0 -76 4t-103 4h-4q-43 0 -71.5 -28.5t-28.5 -71.5q0 -41 29 -66l53 -51v-119q0 -4 -21 -98q-4 -18 -4 -23q-20 -182 -41 -344q-8 -57 -26 -143l-4 -19h-8q-10 70 -89 490q-6 20 -26 106q-14 59 -15 107v43q2 6 60 37q39 23 39 71 q0 109 -207 109q-150 -1 -150 -105z" />
<glyph unicode="X" horiz-adv-x="1239" d="M20 133q0 -63 54 -98q43 -29 110 -29h4l105 25q86 0 151 8h33q72 4 72 80q0 39 -52.5 79t-52.5 68v21q55 100 162 305q2 8 8 8h13q29 0 61 -80q8 -23 23 -63l6 -17q4 -10 8 -24q29 -70 82 -146v-8q0 -14 -57.5 -54t-57.5 -85q0 -43 39 -62q23 -10 76 -22q280 -14 280 -16 h-4q131 0 131 108q0 80 -61 86q-29 2 -61.5 5t-53.5 16q-10 6 -94 145q-227 375 -227 418q0 37 53 112q14 20 21 31q2 2 24 45q16 29 53 105q70 154 115 186q150 0 195 43q22 22 22 62q0 104 -149 104q-23 0 -65 -4t-64 -4q-20 0 -60.5 4t-60.5 4q-139 0 -139 -86 q0 -43 48 -83t48 -65q0 -37 -51 -139q-54 -108 -82 -108q-25 0 -79 104.5t-54 136.5q0 18 45 54t45 79q0 72 -41 82l-97 25h-327q-82 0 -82 -94q0 -115 155 -115h78q43 -16 72 -92q23 -61 49 -117q12 -18 45 -70q8 -14 25 -40l18 -35q41 -78 41 -88v-27q0 -53 -74 -174 q-63 -102 -110 -166q-18 -25 -35.5 -78t-32 -76.5t-59.5 -72.5q-14 -12 -27 -13h-96q-64 0 -64 -98z" />
<glyph unicode="Y" d="M20 1358q0 -86 127 -90q8 0 31 -2h27q31 -23 57 -84q31 -70 49.5 -92.5t22.5 -32.5q16 -45 33 -92q20 -53 47 -84l127 -281v-377l-6 -8h-27q-18 -2 -29 -2q-20 0 -63 5t-64 5q-41 0 -74.5 -31.5t-33.5 -72.5q0 -47 36.5 -80t84.5 -33h266l39 12h280q35 0 58.5 35t23.5 72 q0 70 -114 82q-53 0 -84 6l-50 2h-34l-9 8l-16 80v297q0 4 258 545q12 27 47 96q4 6 8 16q20 20 25 23h113q55 0 55 86q0 57 -55 92q-47 31 -109 31q-20 0 -60 -4t-61 -4q-23 0 -64.5 4t-64.5 4q-100 0 -100 -84q0 -55 43 -80q29 -16 69 -53q2 -4 2 -15v-12q0 -47 -34 -110 q-47 -80 -54 -103l-8 -26q-12 -39 -16 -45q-12 -27 -45 -91q-16 -31 -23 -30h-10q-20 0 -41 34l-27 54l-120 241q-12 25 -31 80v4q-2 2 -2 4q0 8 61.5 36t61.5 81q0 108 -160 108q-11 0 -23 -1q-20 -1 -39 -1t-36 1q-6 0 -19.5 4t-19.5 4h-13q-213 0 -213 -131z" />
<glyph unicode="Z" horiz-adv-x="1095" d="M20 123q0 -102 150 -115q53 -4 70 -4q68 0 94 14h633q35 0 69.5 29t34.5 64v409q0 41 -22.5 73t-61.5 32q-88 0 -96 -160q-4 -82 -12.5 -123t-34.5 -80q-33 -47 -70 -47h-432q-27 0 -27 33q0 25 93 153q25 37 86 127q10 18 32 56q20 31 136 172q84 104 114 182 q23 57 125 174q147 168 148 277q0 72 -82 86h-70h1l-107 2l-357 6h-69h-37q-86 0 -111 -45q-10 -18 -16 -54l-13 -71q-23 -111 -22 -119v-20q-2 -14 -2 -23v-133q2 -16 2 -25q10 -82 76 -82q78 0 94 146l12 104q8 47 24.5 66.5t59.5 42.5l19 8q4 2 10 4h305q18 0 18 -29 t-110 -176q-59 -78 -205 -289q-53 -84 -156 -231q-57 -74 -92 -133q-4 -6 -119 -143q-82 -97 -82 -158z" />
<glyph unicode="[" horiz-adv-x="1024" d="M289 -84q0 -57 37 -57q10 0 45 6q2 2 8 2q33 6 41 6q20 0 57 -8q10 0 30.5 -3t31.5 -3h16q86 0 86 57q0 80 -57 80q-20 0 -43 -8h-4q-33 -6 -41 -6q-47 0 -47 65v1167q0 55 45 56q10 0 47 -6h4q29 -8 49 -9q47 0 47 62q0 74 -86 74h-14q-8 0 -15 -2q-27 0 -69 -11 q-18 -4 -23 -4q-4 0 -47 6h-4q-2 2 -4 2q-25 4 -43 4q-47 1 -47 -38v-1432z" />
<glyph unicode="\" horiz-adv-x="1175" d="M20 1763q39 -90 113 -219l121 -211q4 -8 14 -26l451 -873q12 -27 47 -96q106 -182 158 -326q18 -51 51 -84q16 -16 41 -16h61q74 0 74 25v55q-8 23 -29 69q-33 78 -110 201q-39 59 -84 156q-55 117 -76 155q-59 106 -78 150q-147 332 -295 582q-96 162 -194 356 q-4 6 -52 115q-6 12 -12 28q-25 41 -67 41q-133 0 -134 -65v-17z" />
<glyph unicode="`" horiz-adv-x="436" d="M18 1421q0 -59 62 -59q37 0 141 65q14 6 90 39q100 45 101 113q0 88 -84 88q-43 0 -156 -88q-25 -12 -72 -39l-10 -10q-72 -72 -72 -86v-23z" />
<glyph unicode="a" horiz-adv-x="1142" d="M20 330q0 -117 50 -187q37 -51 143 -125q18 -12 39 -12h184q53 0 129 43q61 39 121 78h10q25 0 47 -33l19 -26q10 -16 20 -21q63 -41 131 -41q92 0 152 82q53 74 53 170q0 125 -84 125q-59 0 -76 -92q-8 -53 -12 -62q-12 -33 -43 -32q-49 0 -49 57v346q10 27 10 57 q-2 63 -2 56v63q0 31 -26 115q-29 92 -158 174q-34 22 -62 22h-2h-313q-27 0 -104 -55q-145 -102 -146 -205q0 -66 42 -107.5t108 -41.5q102 0 127 117l12 57q12 59 33 59h192q49 0 85 -48t36 -97q0 -76 -172 -88l-160 -12q-334 -27 -334 -336zM180 332q0 39 41 98 q20 31 47 33q55 4 201 24l193 33v-2q2 0 8 -3t8 -3v-25q0 -90 -27.5 -145t-101.5 -104q-16 -8 -39 -23l-33 -16h-209q-35 0 -61.5 47t-26.5 86z" />
<glyph unicode="b" horiz-adv-x="1167" d="M20 1384q0 -55 19 -75q45 -49 162 -49q2 0 4 2q8 0 24.5 3t24.5 3l6 -2q8 -2 16 -9l5 -4v-850q12 -25 12 -67q0 -35 -12.5 -105.5t-12.5 -105.5q0 -109 84 -109q33 0 54 15q6 6 38 43q2 0 9 2h8q20 0 39.5 -17.5t34.5 -23.5q109 -41 172 -41q154 0 268 117 q100 100 143 260q6 23 23 84l2 12v217q0 14 -8 31q-61 201 -238 356q-25 20 -51 21h-201q-31 0 -85 -44t-83 -44q-20 0 -20 16v352q0 35 -36 65.5t-71 30.5h-250q-8 0 -16 -8l-55 -55q-10 -10 -9 -21zM461 418v217q0 59 63 158q68 106 121 106h154q57 0 119 -104 q57 -96 57 -246q0 -174 -96 -275q-31 -31 -58 -57l-14 -14h-201q-18 0 -60 55t-52 80q-14 37 -27 65q-2 6 -6 15z" />
<glyph unicode="c" horiz-adv-x="903" d="M18 532q0 -199 136 -358q141 -168 335 -168q141 0 266.5 106.5t125.5 245.5q0 90 -70 91q-41 0 -78 -60q-25 -41 -47 -84q-29 -47 -63 -72q-25 -18 -58 -18h-176q-18 0 -123 109l-20 20q-49 74 -49 219q0 270 184 350q33 14 49 15h135q10 0 25 -15l16 -16v-33 q0 -16 -8 -49t-8 -49q0 -63 43 -107.5t106 -44.5q66 0 105 58q35 49 35 116q0 86 -68 166q-29 35 -133 127q-43 12 -127 35q-37 6 -53 6h-27q-213 0 -342 -194q-111 -171 -111 -396z" />
<glyph unicode="d" horiz-adv-x="1150" d="M20 416q0 -10 11.5 -40t13.5 -42q51 -141 164 -232q119 -96 262 -96q63 0 174 64q2 0 25 22q12 12 28 12h7q4 -2 6 -2q70 -82 215 -82q202 0 202 120q0 64 -92 77q-23 3 -48 3q-12 0 -25 -1q-51 -4 -60 -4l-20 16v465l-17 39v633q0 33 -29.5 69t-62.5 36h-248 q-65 0 -65 -62q0 -92 121 -106l84 -11q37 -4 36 -30v-191l-16 -49h-4q-6 -2 -8 -2q-27 0 -76 43q-61 41 -172 41q-127 0 -158 -33l-170 -176q-4 -6 -6 -8q-8 -35 -37 -125l-10 -29q-25 -70 -25 -71v-248zM197 571q0 221 125 322q47 37 112 37q96 0 168 -80q63 -70 86 -170 q14 -61 14 -125q0 -121 -57 -227q-72 -131 -178 -131q-139 0 -211 125q-59 99 -59 249z" />
<glyph unicode="e" horiz-adv-x="942" d="M20 504q0 -150 64 -271q68 -131 197 -192q84 -41 188 -41q254 0 369 168q65 95 65 158q0 67 -67 67h-2q-63 0 -134 -108q-39 -59 -102 -76q-35 -8 -66 -33h-28q-16 -2 -27 -2q-121 0 -201.5 86t-80.5 207v16q2 10 2 15l8 6l22 2q16 2 54 4l63 2q63 2 256 2h102 q20 0 60 -2h43q45 8 63 16q33 14 50 41q0 6 2 19v16q0 37 -28 133.5t-46 120.5q-174 223 -389 223q-23 0 -45 2q-25 0 -48.5 -9t-54.5 -25l-35 -19q-8 -4 -22 -12q-178 -98 -219 -367q-13 -81 -13 -147zM213 680v12q0 94 84 150q74 49 172 49q96 0 166 -39q84 -47 84 -135 v-15q0 -10 -2 -14q-14 -14 -23 -14h-473q-8 0 -8 6z" />
<glyph unicode="f" horiz-adv-x="1087" d="M20 98q0 -84 72 -84h610q66 0 66 84q0 39 -22.5 78t-59.5 39h-192v666l8 8h35q18 0 53 -4t53 -4q51 0 88 26.5t37 75.5q0 68 -55 86q-25 8 -115 12q-6 0 -27 2l-30 2q-10 0 -27 2l-12 3l-8 8v14q-2 10 -2 16q0 78 63 129q57 49 137 50q57 0 99 -33q-2 -27 -3 -78 q4 -172 127 -172q70 0 109 55.5t39 126.5q0 104 -84 176q-72 61 -182 86q-66 14 -131 15h-4q-43 -4 -127 -33q-20 -10 -25 -16q-143 -96 -174 -207q-10 -41 -27 -107l-16 -14q-31 0 -76 2q-12 1 -24 1q-158 0 -158 -103v-19q2 -12 2 -18q61 -74 125 -74q18 0 53 13.5 t53 13.5q41 0 41 -33v-658l-8 -8l-10 -2q-45 -14 -70 -14h-20q-12 0 -36 4t-36 4q-109 0 -109 -117z" />
<glyph unicode="g" horiz-adv-x="1118" d="M20 -94q0 -178 177 -236q16 -12 55 -32q131 -47 342 -48q195 0 321 74q156 92 156 273q0 72 -41 129q-23 31 -96 94l-21 18l-10 10q-29 29 -108 31q-39 0 -138 19q-43 10 -59 10h-72q-47 0 -139 -20.5t-139 -20.5q-23 0 -35 24v29q0 84 66 84q41 0 117.5 -28.5 t117.5 -28.5q37 0 68.5 13t62.5 28q201 80 201 346q0 33 -14.5 97.5t-14.5 96.5q2 0 51.5 -66.5t114.5 -66.5q113 0 113 150q0 88 -76 145q-70 51 -162 51q-80 0 -141 -57h-39q-37 0 -106.5 28.5t-106.5 28.5q-12 0 -43 -10q-8 -2 -41 -14q-250 -109 -250 -373 q0 -31 13.5 -90t13.5 -90v-12q0 -8 -2 -13q-113 -109 -113 -221q0 -29 25.5 -85t25.5 -83l-2 -10q-72 -80 -72 -174zM197 -70q0 86 116 121q68 20 193 21q229 0 352 -68q51 -29 51 -78q0 -86 -184 -135q-119 -8 -262 -8q-166 0 -266 113v34zM276 676q0 88 67 150.5t155 62.5 q94 0 141 -60.5t47 -156.5q0 -94 -56.5 -160t-148.5 -66q-86 0 -145.5 72t-59.5 158z" />
<glyph unicode="h" horiz-adv-x="1239" d="M20 100q0 -49 39 -81.5t88 -32.5q27 0 78 12t78 12q23 0 70 -5t69 -5q104 0 148 57v37q0 88 -88 107q-18 2 -53 12t-35 37v201q0 25 8 41q0 6 4 28q0 4 2 13.5t2 13.5q39 133 117 227q96 119 215 119q105 0 105 -131q0 -15 -1 -31q-4 -59 -4 -78v-131v-57l-2 -90 q0 -20 -3 -71.5t-3 -78.5q-16 -12 -60 -18t-61 -21q-33 -27 -45 -41q-12 -20 -12 -59q0 -45 39 -63q10 -6 76 -21h43q55 -2 40 -2q25 0 72 5t72 5q10 0 32.5 -4t32.5 -4q131 0 131 100q0 96 -151 109l-25 22v553q0 205 -159 275q-49 22 -112 22h-5q-160 0 -277 -135 q-12 -31 -49 -65q-4 0 -13 2t-13 2v444q0 55 -40 88t-98 33h-12q-6 0 -19.5 -4t-19.5 -4l-123 -8q-69 -16 -69 -82q0 -27 16 -66q18 -45 39 -45h113q16 0 32 -31v-16q2 -14 2 -25l2 -63q3 -108 5 -108v4q0 -25 8 -41v-265l-13 -39v-448q0 -14 -36 -33h-11q-10 -2 -16 -2 q-14 0 -42 9.5t-42 9.5q-66 -1 -66 -95z" />
<glyph unicode="i" horiz-adv-x="886" d="M20 98q0 -84 80 -84h699q65 0 65 83q0 42 -23.5 82t-58.5 40h-217l-12 12v762q0 39 -35 63.5t-76 24.5q-16 0 -48 -4t-48 -4q-23 0 -69 4t-68 4q-158 0 -158 -94q0 -39 21 -72q24 -38 59 -38h2h240v-453q-6 -45 -15 -156q-2 -29 -2 -28l-14 -21h-225q-45 0 -71 -37 t-26 -84zM293 1333q0 -70 35 -114q39 -51 106 -52q61 0 104.5 37t43.5 96q0 66 -43 120.5t-107 54.5q-61 0 -100 -40.5t-39 -101.5z" />
<glyph unicode="j" horiz-adv-x="798" d="M20 -20q0 -180 76 -261q114 -120 262 -120h2q55 0 148 36q104 41 131 84q82 133 111 385q4 35 16 127v779q0 29 -21.5 50t-50.5 21h-344q-33 0 -65.5 -21.5t-32.5 -53.5q0 -61 59 -97q47 -28 111 -28h4q23 0 66 5t65 5h21q12 0 12 -2l16 -15q0 -6 2 -16v-16 q0 -57 -14 -88v-410q-12 -12 -12 -39v-137v-37l-2 -59q-6 -37 -7 -97q-6 -20 -16 -47q0 -16 -8 -16l-88 -88q0 6 -15 -8l-24 -9h-121q-20 0 -46 32t-26 52q0 10 15 27l30 37q43 51 43 113q0 61 -36.5 105t-96.5 44q-66 0 -92 -41q-72 -112 -72 -196zM508 1343q0 -61 33 -106 q37 -51 94 -51q59 0 100 47t41 108q0 53 -43 109.5t-94 56.5h-18q-4 0 -15 -8q-51 -43 -69 -67q-29 -40 -29 -89z" />
<glyph unicode="k" horiz-adv-x="1216" d="M20 100q0 -78 121 -100h92q33 0 96.5 4t96.5 4q18 0 56 -4t57 -4q27 0 64.5 20.5t58.5 20.5q12 0 34.5 -11.5t30.5 -13.5q72 -16 104 -16h248q115 25 115 84v14q-2 10 -2 15q-20 82 -90 102q-37 10 -150 10q-27 20 -49 64q-39 72 -80 121q-35 39 -98 120q-31 43 -31 86 t97 107q137 147 200 151q47 4 99 9q47 12 47 71q0 86 -129 109q-42 8 -88 8h-19l-90 -2h4h-53q-20 -2 -31 -2h-20q-74 -20 -74 -76q0 -31 27 -59l47 -49q-6 -6 -16.5 -20.5t-16.5 -20.5l-223 -217q-16 0 -17 10v457q8 25 8 59q0 29 -6 106q-3 45 -3 78q0 16 1 29 q-6 47 -45 75.5t-88 28.5h-4q-8 0 -23.5 -4t-23.5 -4h-8q-8 0 -24.5 4t-24.5 4h-13q-51 0 -92 -27.5t-41 -76.5q0 -88 121 -88h66q31 -25 30 -55v-668l-10 -39v-289l-8 -2l-12 -6l-25 -8h-137q-20 0 -38 -42t-18 -67zM438 225v168q25 29 80 88q18 17 41 17q16 0 96 -130 t80 -159q0 -25 -25.5 -49.5t-50.5 -24.5h-8q-6 0 -20.5 11.5t-16.5 13.5q-29 6 -96 22q-80 20 -80 43z" />
<glyph unicode="l" horiz-adv-x="1013" d="M18 96q0 -35 31 -58.5t68 -23.5h792q82 0 82 95q0 39 -22.5 74.5t-59.5 35.5h-272l-21 19v1089q0 61 -59 94q-49 27 -117 27q-18 0 -55 -4t-55 -4q-25 0 -73 8t-73 8q-139 0 -139 -100q0 -61 51 -74q25 -6 86 -27q18 -8 54 -8h32q39 0 113 25q55 -18 55 -41v-344l-12 -39 v-617l-10 -12h-314q-61 0 -77 -84q-5 -21 -5 -39z" />
<glyph unicode="m" horiz-adv-x="1247" d="M20 84q0 -45 46.5 -80t91.5 -35h168q35 0 118 72h5q12 0 32 -10l49 -25q74 -37 93 -37h118q18 0 49.5 29t47.5 29q12 0 37.5 -11.5t41 -13.5t105.5 -25q68 -16 113 -16q37 0 62.5 35t25.5 74q0 37 -31 63l-27 23q-16 12 -22 30v93v63v13q0 32 8 55v456q0 14 -8 33 q-74 168 -189 168q-100 0 -176 -86q-18 -23 -53 -49q-47 47 -92 94q-57 49 -119 49q-68 0 -145 -78l-35 -34h-8q-20 20 -68 71q-18 18 -41 19h-49q-131 0 -131 -99q0 -27 60.5 -55.5t60.5 -54.5v-539l-17 -110q0 -4 -60.5 -32t-60.5 -79zM326 178v385q0 82 53 176t123 135 q6 0 12 3h12q47 0 47 -27v-633q0 -16 -57 -61q-23 -16 -72 -58h-6q-16 27 -49 47q-20 4 -57 25q-6 6 -6 8zM725 309q0 242 49 381q0 8 17 25q4 6 14 24l18 37q10 20 31 60q41 41 72 41q49 0 49 -27v-649q0 -35 -72 -49q-10 -2 -24 -7l-33 -16h-17q-72 25 -92 68 q-12 26 -12 112z" />
<glyph unicode="n" horiz-adv-x="1159" d="M20 117q0 -76 62 -94q43 -2 131 -15q6 0 20.5 -4t20.5 -4h168q104 10 104 90q0 82 -71 103q-37 6 -54 10q-37 8 -45 22v31q0 47 13 72v233l12 19q10 23 33 53q145 250 295 250q82 0 106 -41q0 10 2 -23l4 -67v-23q8 -16 8 -47v-8q0 -12 -12 -49v-312l-18 -80l-8 -8 q-154 -8 -154 -125q0 -66 65 -84h-4l150 -4l86 -2q14 0 35 -2h22h31q113 0 113 88q0 102 -144 129l-8 8v13q-2 10 -2 16q0 53 10 82v506q0 94 -80 172t-174 78q-68 0 -139 -39q-31 -16 -121 -82q-14 -10 -24 -25l-25 -32q-31 -41 -47 -41h-4q-2 0 -4 2q-4 43 -11 75 q-10 47 -30 70q-35 37 -152 53q-2 2 -14 3h-19q-120 0 -120 -91q0 -77 80.5 -109t80.5 -42v-473q-4 -45 -16 -136l-8 -8q-72 -4 -101 -20q-43 -25 -43 -88z" />
<glyph unicode="o" horiz-adv-x="999" d="M20 518q0 -104 52 -235q59 -152 133 -201q16 -8 51 -25l35 -18q27 -14 106 -29q27 -14 86 -37q16 -4 47 -4q119 0 240 117q113 106 150 227q6 25 28 115q6 31 27 111q0 8 2 22v23q0 109 -49 202q0 4 -97 187l-8 8q-160 137 -313 137q-246 0 -375 -184 q-115 -162 -115 -416zM197 516q0 188 75 293q16 23 69.5 69t72.5 46h129q53 -18 159 -76q23 -18 33 -45q49 -129 49 -232q0 -227 -145 -346q-43 -16 -137 -16h-43q-27 0 -29 2q-35 0 -76 12l-12 2l-96 97q-49 49 -49 194z" />
<glyph unicode="p" horiz-adv-x="1167" d="M20 -262q0 -72 97 -100q20 -6 47 -7h409q41 0 69 30t28 71q0 104 -64 104h-145l-17 21v239q0 25 29 25q35 0 88 -41q83 -64 126 -64h3q35 2 105 4q43 6 100 43q141 90 199 228q51 117 51 299q0 186 -103 346q-117 180 -297 180h-28l-23 -2q-25 0 -41 -8q-35 0 -71 -8 q-4 -2 -11 -8l-16 -17q-4 -4 -14.5 -15t-14.5 -16q-59 -49 -73 -49h-4q-2 0 -5 2q-35 100 -188 105h-80q-141 0 -141 -96q0 -55 100 -70q59 -8 76 -12q45 -12 65 -39q0 -8 3 -27v-27q0 -25 -5.5 -71.5t-5.5 -71.5q0 -27 5.5 -80t5.5 -80q0 -23 -5.5 -64.5t-5.5 -64.5 q0 -12 4 -35.5t4 -35.5v-4q0 -33 -8 -50v-12q0 -18 5.5 -52t5.5 -52q0 -57 -9 -150q-8 -115 -10 -149l-14 -21h-162q-64 0 -64 -98zM461 473v92q0 123 37 205t127 158l12 10h145q29 0 80 -64q68 -84 88 -155q16 -55 17 -174v-88q-8 -94 -74 -170q-72 -80 -162 -80 q-207 0 -270 266z" />
<glyph unicode="q" horiz-adv-x="1159" d="M20 512q0 -188 123 -346q131 -168 314 -168q84 0 141 27q10 4 53 43q32 26 66 26h2v-198q0 -35 -25 -56q-109 0 -143 -10q-74 -22 -74 -104q0 -94 80 -95h522q55 0 56 80q0 86 -70 113q-43 16 -147 16l-19 17v1185q0 20 -23.5 35t-46.5 15q-45 0 -74.5 -49.5t-35.5 -49.5 q-10 0 -25 8q-100 72 -114 80q-70 41 -131 41q-35 0 -115 -32q-160 -66 -242 -238q-72 -150 -72 -340zM195 530v19q0 166 43 221q59 78 69 88q76 82 166 82h23q14 -2 22 -2q86 -31 146 -145q55 -104 55 -205q0 -143 -60 -256q-74 -139 -202 -139q-145 0 -230 172 q-22 47 -30 92v47q-2 16 -2 26z" />
<glyph unicode="r" horiz-adv-x="1087" d="M20 999q0 -90 97 -100h-3l91 -4l53 -2q8 0 21 -2h14l16 -17l13 -280l4 -201q-4 -6 -11 -94l-4 -55l-2 -27l-8 -8q-35 -2 -41 -2q-18 0 -57 5t-58 5q-110 0 -110 -100q0 -51 39 -84t90 -33h233q27 8 60 8q23 0 68.5 -4t68.5 -4q197 0 197 117q0 47 -38 73.5t-87 26.5 q-16 0 -46 -4t-47 -4q-53 0 -63 31q0 27 0 26l-2 39q-6 25 -6 64q0 25 -8 41v231q0 23 34 76q31 47 54 69l102 103q35 35 64 35h14q10 0 12 -11q10 -150 66 -206q27 -27 65 -27q158 0 158 182q0 106 -77 172t-183 66q-123 0 -293 -137h-4q-12 0 -27 32q-10 25 -18 47 q-37 51 -158 56q-20 1 -40 1q-30 0 -58 -2q-20 -1 -38 -1q-23 0 -42 2q0 2 -6 2h-6q-92 0 -93 -101z" />
<glyph unicode="s" horiz-adv-x="894" d="M20 102q0 -108 75 -108h1q61 0 80 55q6 29 29 66q18 -10 61 -47q37 -33 66 -41l82 -21q6 -2 16 -4l55 -2q154 0 269.5 103.5t115.5 254.5q0 135 -129 254q-197 81 -416 81q-20 0 -40 -1q-88 23 -88 107q0 39 32.5 75.5t71.5 49.5q-12 0 39 2h37h45q84 0 132 -34t83 -112 q49 -112 99 -112h1q41 0 63.5 34.5t22.5 77.5v25v-3l-4 116l-2 67q-2 51 -2 43q2 29 -21.5 50.5t-52.5 21.5q-33 0 -55 -31q-31 -43 -41 -49q-100 70 -289 96h-18q-43 0 -100 -24q-203 -88 -203 -277q0 -168 102 -242q70 -49 238 -69l137 -17q92 -10 125 -24q65 -27 65 -92 q0 -92 -84 -140q-66 -38 -160 -38h-5q-90 0 -158 57q-31 27 -107 129q-10 33 -20 64.5t-64 31.5q-72 0 -71 -63v-242q-13 -25 -13 -68z" />
<glyph unicode="t" horiz-adv-x="1007" d="M20 1022q0 -29 18.5 -55.5t45.5 -26.5h258v-227q-21 -57 -21 -120q0 -13 1 -26l12 -258q21 -133 127 -215q10 -4 33 -14l20 -10q6 -2 12 -7q33 -27 43 -30q35 -18 97 -19q147 0 237 133q80 119 80 273q0 117 -92 117q-57 0 -82 -82l-45 -152q-37 -80 -121 -80 q-35 0 -76 43t-41 78v569l25 23q4 4 61 4q33 0 99.5 -13.5t99.5 -13.5q41 0 66.5 30t25.5 71q0 45 -31.5 80.5t-76.5 35.5q-27 0 -82.5 -5t-81.5 -5h-45q-27 0 -29 2l-14 15q-2 2 -2 26v37q0 31 5 93.5t5 92.5q0 59 -12 87q-19 34 -71 34h-3q-92 0 -98 -121q-2 -47 -5 -96 q-4 -66 -20 -88q-31 -43 -125 -47q-102 -4 -125 -25q-72 -63 -72 -108z" />
<glyph unicode="u" horiz-adv-x="1208" d="M20 999q0 -59 58 -75q35 -6 102 -33v-21q0 -10 2 -28v-47q0 -61 -13 -186.5t-13 -186.5q0 -268 180 -383q61 -39 145 -39q94 0 178 61q45 33 140 132h8v-89q0 -90 217 -90q76 0 111 15q51 20 51 86q0 72 -66 96q-37 14 -129 14l-16 17l8 641v9q0 191 -87 191h-1h-184 q-82 0 -82 -75q0 -63 90 -86l88 -23v-297q0 -176 -217 -369q-30 -26 -102 -26h-5q-100 0 -118 123q0 27 -5 92q-2 29 -4 92l-4 113q-2 55 -2 71v39q-2 53 -2 39q0 29 5 84t5 84q0 139 -90 139h-168q-80 0 -80 -84z" />
<glyph unicode="v" horiz-adv-x="1222" d="M20 954q42 -53 177 -63q8 0 8 -8q31 -57 88 -224q18 -55 39 -124l8 -29q8 -8 33 -72q14 -35 49 -129q14 -45 42 -136t52 -126q41 -57 117 -57t100 71q111 332 225 691q10 16 33 86q10 31 39 73h47q123 0 123 72q0 55 -49 78q-14 8 -96 26q-49 0 -97 2q-74 4 -96 7h-71 q-115 0 -115 -88q0 -43 41 -60q33 -6 65 -12q41 -10 56 -33q0 -4 2 -14v-15q0 -41 -150 -444q-53 -141 -69 -152l-9 9l-6 14q-61 113 -84 197q-16 57 -55 159q-72 184 -72 226q0 23 89 44t89 72q0 88 -139 88q-18 0 -56 -4t-56 -4h-5q-18 0 -57 12.5t-55 12.5h-21 q-164 0 -164 -109v-37z" />
<glyph unicode="w" horiz-adv-x="1239" d="M20 977q-2 -14 9 -25q2 -4 12 -12l51 -53q43 -135 66 -228l55 -229q12 -63 41 -190q22 -101 55 -187q37 -49 92 -49q74 0 93 66q25 94 47 231q29 184 41 234q2 45 18 131q6 20 23 30q23 -8 43 -164q10 -84 43 -301q27 -166 59 -202q20 -23 76 -23q45 0 82 47 q59 152 65 266q10 41 37 146l76 293q6 23 14 57q0 12 25 72q4 14 20 31l51 51v26q0 88 -129 101q-23 2 -59 2q-164 0 -164 -103q0 -31 44 -52t44 -32v-104q0 -8 -18 -84l-17 -68q-8 -37 -14 -55l-31 -104q-2 -29 -4 -56q-8 -41 -28 -49l-9 8v-1q-1 0 -18 94q-4 23 -12 59 q-6 61 -25 184q0 -4 -1 -4q-3 0 -23 92q-2 35 -2 41v21q4 25 51 57q33 23 32 51q0 104 -241 105q4 0 -41 -2q-12 0 -47 -11l-45 -12q-37 -14 -37 -61q0 -43 32.5 -66.5t32.5 -25.5v-97l-79 -368l-17 -33h-8l-6 20q-4 12 -9.5 31t-19.5 78l-57 242q-8 37 -21 79v13 q0 12 49.5 38.5t49.5 71.5q0 92 -131 101q-33 2 -60 2q-80 0 -106 -11q-49 -18 -50 -83v-27z" />
<glyph unicode="x" d="M20 125q1 -99 97 -109q39 -2 148.5 -9t144.5 -7q141 0 141 100q0 43 -70 95q-12 8 -12 18v4q16 41 66 107l36 49q23 31 35 51q10 10 25 10t85 -100q66 -95 66 -115q0 -11 -42 -41q-38 -26 -38 -65t25 -68t64 -29h360q80 0 80 107q0 59 -47 70l-154 32q-29 6 -93.5 89 t-74.5 118l-112 129v25q88 119 241 297q12 14 47 18l54 4q67 8 67 78q0 92 -88 98q-20 2 -76 6l-57 3h-43h-23q-196 0 -196 -88q0 -50 45 -76l31 -19q14 -8 14 -22q0 -20 -100 -127l-21 -21h-8q-23 0 -64 64.5t-41 89.5q0 16 23 31q29 23 33 26q10 12 10 37q0 84 -104 96 q-33 4 -244 15q-41 2 -62 2h-12q-63 0 -108 -56v-36q0 -94 141 -99l71 -2h-4q18 -4 80 -80q102 -127 148 -207q14 -27 14 -36v-4q-2 -8 -8 -25l-21 -21q-59 -59 -73 -79q-68 -102 -162 -205q-18 -20 -33 -23q-41 -2 -123 -14q-78 -23 -78 -86z" />
<glyph unicode="y" horiz-adv-x="1222" d="M20 -180q0 -109 91 -182q84 -70 194 -70q66 0 142.5 41t109.5 96q6 6 41 80q4 4 12 16.5t13.5 17.5t5.5 13q199 512 272 793q18 70 60 174q14 27 36 43h80q121 0 121 116q0 66 -55 78q-37 2 -113 15h-264q-82 0 -82 -80q0 -57 57.5 -92t57.5 -50v-10q0 -6 -2 -10 q-8 -33 -17 -64l-57 -192q-8 -25 -21 -64q-6 -23 -24 -75q-23 -61 -45 -62q-20 0 -37 43q-10 59 -51 154l-13 29q-25 51 -83 186q-12 29 -13 59q0 14 64.5 48t64.5 85q0 39 -40 67t-81 28h-319q-66 0 -78 -99q-4 -35 -4 -45q0 -47 66 -57h-2q0 -1 63 -4l37 -2q37 -2 22 -2 q59 -39 72 -160q10 -25 39 -94l117 -285q29 -72 63 -174q6 -18 6 -37v-24q0 -121 -96 -228q-2 0 -20 -18l-23 -21q-8 -6 -20 -18l-11 -6h-55q-8 0 -8 16q0 12 8 36t8 38q0 143 -125 143q-76 0 -120 -56t-44 -134z" />
<glyph unicode="z" horiz-adv-x="991" d="M20 109q0 -109 125 -109q18 0 52 4t53 4q27 0 77 -4t76 -4h50q27 0 49 12h393q31 0 53 41q18 33 19 68v280q0 39 -26 76t-62 37q-68 0 -84 -125l-13 -90q-12 -55 -41 -74q-10 -6 -34 -18l-19 -10q-6 -4 -10 -4h-363q0 4 -4 16t-2 16q25 51 109 133q10 8 35 35 q49 57 186 201l55 55q37 47 105 121q8 8 24 25l78 73q12 12 27 23q16 18 16 67v19q0 14 -2 18q-33 45 -96 56h-23q-18 2 -32 2l-84 2q-188 4 -279 18q-66 10 -139 10q-43 0 -86 -24.5t-53 -63.5l-58 -241v-25q0 -98 70 -98q51 0 84 74q12 39 55 112q33 39 96.5 64.5 t116.5 25.5q23 0 139 -16q10 -2 11 -12v-23l-2 -6l-97 -96l-16 -33l-264 -264q-23 -53 -150 -174q-115 -108 -115 -174z" />
<glyph unicode="&#xa2;" horiz-adv-x="1312" d="M20 -182q0 -49 84 -49q63 0 103 47l61 98q43 43 58 72l20 28q10 14 27 19q141 -41 213 -41q59 0 180 90q12 6 41 20q12 6 41 19q55 41 96 106q47 74 47 135q0 74 -76 74q-39 0 -66.5 -39t-49.5 -75q-41 -61 -117 -99.5t-152 -38.5h-22q-31 0 -31 11v12q0 29 64 119 q25 35 90 125q25 37 90 135q8 12 22 32l9 9q221 10 231 176q2 25 6 90l2 53v35q41 84 148.5 236.5t148.5 236.5q0 4 2 10v11q0 29 -31.5 48t-62.5 19q-49 0 -127 -117q-37 -59 -135 -217q-74 -117 -98 -116q-12 0 -35 8t-35 8h-184q-47 0 -97 -29l-88 -51 q-143 -84 -223 -246q-74 -152 -74 -327q0 -111 41 -181q23 -31 64 -94q8 -18 8 -26t-8 -25q-74 -102 -162 -248q-23 -36 -23 -63zM268 487q0 252 226 412q47 33 69 33q47 0 43 -78q-2 -27 0 -35q0 -6 4 -19.5t4 -19.5v-28q0 -43 -61 -129q-25 -35 -90 -123q-29 -51 -55 -105 q-37 -59 -74 -88q-2 -2 -6 -2h-2q-31 0 -45 80q-13 65 -13 102z" />
<glyph unicode="&#xc7;" horiz-adv-x="999" d="M20 604q6 -70 41 -209q23 -59 70 -153q9 -16 19 -39q125 -209 413 -209q156 0 287 158q125 152 125 311q0 125 -76 125q-43 0 -68 -41q-45 -127 -69 -176q-88 -178 -244 -178q-6 0 -41 2q-211 51 -256 385q-2 12 -8 41v256q0 115 58.5 228.5t152.5 170.5q4 2 6 2h135 q8 0 25 -8q119 -57 151 -146q4 -12 25 -80q6 -39 25.5 -119.5t74.5 -80.5q37 0 64.5 45t27.5 84v248q0 25 -8 49v4q0 14 5.5 44t5.5 44q0 125 -82 125q-37 0 -91 -76q-10 -14 -22 -14h-8q-158 90 -269 90q4 0 -45 2q-33 2 -149 -62l-27 -14q-35 -31 -82 -90 q-51 -66 -61 -102l-88 -289q-6 -66 -17 -113v-215zM399 -252q0 -127 119 -127q61 0 100 45t39 107q0 125 -125 125q-133 0 -133 -150z" />
<glyph unicode="&#xd6;" horiz-adv-x="1112" d="M20 584q0 18 11 -33q12 -59 14 -64q43 -147 152 -290q41 -55 71 -70q10 -4 58 -29l55 -28q106 -55 174 -56q45 0 82 19l74 37q299 117 360 522q16 106 16 221q0 195 -104 422q-23 23 -96 143q-4 4 -72 56q-151 114 -276 114q-332 0 -478 -475q-10 -33 -34 -137 q-2 -10 -7 -23v-329zM172 1792q0 -53 40 -93t93 -40q117 0 117 141t-117 142q-53 0 -93 -47.5t-40 -102.5zM197 784q0 174 86 355q104 217 264 217q49 0 94 -29l78 -61q119 -94 153 -250l23 -103v-264q0 -31 -12 -55q-18 -43 -21 -49q-37 -121 -76 -180q-70 -109 -155 -109 h-201q-37 0 -106 88q-61 76 -78 127q-49 149 -49 313zM637 1792q0 -127 119 -127q61 0 100 45t39 107q0 125 -125 125q-133 0 -133 -150z" />
<glyph unicode="&#xdc;" d="M20 1380q0 -74 41 -84l132 -34v-895q14 -61 67 -177q133 -186 350 -186q145 0 277 90q49 33 101 130.5t56 158.5q2 33 15 63v619q12 25 12 74q0 18 -4 52t-4 52v21q0 12 16 16q80 6 101 14q51 20 51 78q0 49 -35 82q-41 35 -86 35h-18q-10 0 -27 2h-47q-25 0 -72 -5 t-72 -5q-12 0 -36.5 4t-36.5 4q-100 0 -101 -92q0 -92 154 -117q25 -10 25 -51v-4q-2 -18 -9 -47q4 -281 -8 -779q-14 -59 -69 -116q-66 -68 -115 -68h-143q-35 0 -95 76q-55 70 -55 108v473q-12 18 -12 56q0 147 12 309q2 39 12 43q84 6 115 18q55 23 55 91 q0 43 -27.5 71.5t-70.5 28.5h-360q-88 0 -89 -109zM252 1802q0 -53 40 -93t93 -40q117 0 117 141t-117 142q-53 0 -93 -47.5t-40 -102.5zM717 1802q0 -127 119 -127q61 0 100 45t39 107q0 125 -125 125q-133 0 -133 -150z" />
<glyph unicode="&#xe7;" horiz-adv-x="903" d="M18 532q0 -199 136 -358q141 -168 335 -168q141 0 266.5 106.5t125.5 245.5q0 90 -70 91q-41 0 -78 -60q-25 -41 -47 -84q-29 -47 -63 -72q-25 -18 -58 -18h-176q-18 0 -123 109l-20 20q-49 74 -49 219q0 270 184 350q33 14 49 15h135q10 0 25 -15l16 -16v-33 q0 -16 -8 -49t-8 -49q0 -63 43 -107.5t106 -44.5q66 0 105 58q35 49 35 116q0 86 -68 166q-29 35 -133 127q-43 12 -127 35q-37 6 -53 6h-27q-213 0 -342 -194q-111 -171 -111 -396zM328 -264q0 -127 118 -127q61 0 100.5 45t39.5 106q0 125 -125 125q-133 1 -133 -149z" />
<glyph unicode="&#xf6;" horiz-adv-x="999" d="M20 518q0 -104 52 -235q59 -152 133 -201q16 -8 51 -25l35 -18q27 -14 106 -29q27 -14 86 -37q16 -4 47 -4q119 0 240 117q113 106 150 227q6 25 28 115q6 31 27 111q0 8 2 22v23q0 109 -49 202q0 4 -97 187l-8 8q-160 137 -313 137q-246 0 -375 -184 q-115 -162 -115 -416zM156 1313q0 -53 40 -93t93 -40q117 0 117 141t-117 141q-53 0 -93 -47t-40 -102zM197 516q0 188 75 293q16 23 69.5 69t72.5 46h129q53 -18 159 -76q23 -18 33 -45q49 -129 49 -232q0 -227 -145 -346q-43 -16 -137 -16h-43q-27 0 -29 2q-35 0 -76 12 l-12 2l-96 97q-49 49 -49 194zM621 1313q0 -127 118 -127q61 0 100.5 45t39.5 106q0 125 -125 125q-133 1 -133 -149z" />
<glyph unicode="&#xfc;" horiz-adv-x="1208" d="M20 999q0 -59 58 -75q35 -6 102 -33v-21q0 -10 2 -28v-47q0 -61 -13 -186.5t-13 -186.5q0 -268 180 -383q61 -39 145 -39q94 0 178 61q45 33 140 132h8v-89q0 -90 217 -90q76 0 111 15q51 20 51 86q0 72 -66 96q-37 14 -129 14l-16 17l8 641q2 201 -88 200h-184 q-82 0 -82 -75q0 -63 90 -86l88 -23v-297q0 -176 -217 -369q-31 -27 -107 -26q-100 0 -118 123q0 27 -5 92q-2 29 -4 92l-4 113q-2 55 -2 71v39q-2 53 -2 39q0 29 5 84t5 84q0 139 -90 139h-168q-80 0 -80 -84zM156 1313q0 -53 40 -93t93 -40q117 0 117 141t-117 141 q-53 0 -93 -47t-40 -102zM621 1313q0 -127 118 -127q61 0 100.5 45t39.5 106q0 125 -125 125q-133 1 -133 -149z" />
<glyph unicode="&#x11e;" horiz-adv-x="1159" d="M20 602q16 -117 41 -225q33 -143 154 -260t266 -117q25 0 43 -2q37 0 119 57q47 33 76 33q12 0 20 -12l19 -27q29 -41 67 -41q45 0 73 38t28 85q0 16 -4 49t-4 49v41q0 20 8 43v232q0 35 16 41q193 0 193 104q0 88 -131 88q-18 0 -56.5 -4t-56.5 -4q-43 0 -131 12.5 t-131 12.5q-37 0 -58.5 -31t-21.5 -70q0 -96 170 -108l14 -17q2 -4 2 -20v-25q0 -121 -65 -213q-72 -104 -189 -104q-109 0 -192 135q-76 123 -76 227v394q8 31 33 112q70 217 235 217q164 0 213 -110q20 -43 49 -170q23 -98 86 -99q74 0 95 127q2 57 18 170v226 q0 66 -68 65q-51 0 -85.5 -53t-43.5 -53q-23 0 -45 20l-38 35q-100 66 -189 66q-147 0 -278 -166q-121 -152 -142 -308q-8 -63 -33 -225v-215zM180 1898q-16 -29 19 -90q14 -25 84 -57q59 -29 100 -39q102 -25 215 8q49 14 80 23q104 39 104 137q0 57 -47 57q-33 0 -94 -28 q-41 -18 -94 -41q-27 -12 -31 -15q4 0 18.5 6.5t12.5 8.5q-37 -12 -72 -13q-35 0 -69 13q-121 68 -164 67q-41 0 -62 -37z" />
<glyph unicode="&#x11f;" horiz-adv-x="1118" d="M20 -94q0 -178 177 -236q16 -12 55 -32q131 -47 342 -48q195 0 321 74q156 92 156 273q0 72 -41 129q-23 31 -96 94l-21 18l-10 10q-29 29 -108 31q-39 0 -138 19q-43 10 -59 10h-72q-47 0 -139 -20.5t-139 -20.5q-23 0 -35 24v29q0 84 66 84q41 0 117.5 -28.5 t117.5 -28.5q37 0 68.5 13t62.5 28q201 80 201 346q0 33 -14.5 97.5t-14.5 96.5q2 0 51.5 -66.5t114.5 -66.5q113 0 113 150q0 88 -76 145q-70 51 -162 51q-80 0 -141 -57h-39q-37 0 -106.5 28.5t-106.5 28.5q-12 0 -43 -10q-8 -2 -41 -14q-250 -109 -250 -373 q0 -31 13.5 -90t13.5 -90v-12q0 -8 -2 -13q-113 -109 -113 -221q0 -29 25.5 -85t25.5 -83l-2 -10q-72 -80 -72 -174zM197 -70q0 86 116 121q68 20 193 21q229 0 352 -68q51 -29 51 -78q0 -86 -184 -135q-119 -8 -262 -8q-166 0 -266 113v34zM260 1401q-16 -29 19 -90 q14 -25 83 -58q59 -29 101 -39q102 -25 215 9q49 14 80 22q104 39 104 137q0 57 -47 58q-33 0 -94 -29q-41 -18 -94 -41q-27 -12 -31 -14q4 0 18.5 6t12.5 8q-37 -12 -72 -12t-70 12q-121 68 -163 68q-41 0 -62 -37zM276 676q0 88 67 150.5t155 62.5q94 0 141 -60.5 t47 -156.5q0 -94 -56.5 -160t-148.5 -66q-86 0 -145.5 72t-59.5 158z" />
<glyph unicode="&#x130;" horiz-adv-x="925" d="M20 102q0 -117 156 -116q29 0 88.5 4t87.5 4h62q39 2 63 -8h281q59 0 102 32.5t43 90.5q0 37 -38 67.5t-77 30.5h-198l-25 26v537q8 27 8 68q0 39 -8 69v344l8 9h41q25 0 74 -5.5t74 -5.5q125 0 125 94q0 100 -135 109q-35 0 -106 2t-97 16h-328q-25 12 -59 13 q-51 0 -90 -29q-45 -31 -45 -80q0 -45 42 -86t87 -41h217l8 -12q0 -4 2 -12v-13q0 -43 -14 -71v-906q0 -10 -45 -18q-27 -6 -52 -6q-20 0 -57 5t-55 5q-57 0 -98.5 -31t-41.5 -86z" />
<glyph unicode="&#x131;" horiz-adv-x="886" d="M20 98q0 -84 80 -84h699q66 0 65 86q0 39 -23.5 79t-58.5 40h-217l-12 12v762q0 39 -35 63.5t-76 24.5q-16 0 -48 -4t-48 -4q-23 0 -69 4t-68 4q-158 0 -158 -94q0 -39 21 -72q25 -39 61 -38h240v-453q-6 -45 -15 -156q-2 -29 -2 -28l-14 -21h-225q-45 0 -71 -37t-26 -84 z" />
<glyph unicode="&#x15e;" horiz-adv-x="1030" d="M20 1079q0 -199 170 -305q141 -86 355 -90q176 -4 243 -106q25 -37 25 -48v-143q-14 -41 -63 -121q-25 -27 -95 -35q-25 -4 -49 -20h-153q-25 8 -88 31q-98 35 -136 151q-6 74 -20 146q-18 88 -88 88q-84 0 -84 -80v-473q0 -37 27.5 -62.5t64.5 -25.5q35 0 55 26 q14 27 31 56q8 14 29 14q37 0 108.5 -40t108.5 -40h201q33 0 112 55l39 21q10 4 41 20q152 109 152 373q0 117 -64 205q-43 59 -154 151q-6 2 -14 9q-147 37 -340 49q-119 8 -174 49q-66 51 -65 164q0 88 73.5 149.5t163.5 61.5q133 0 262 -99q33 -25 54 -147 q18 -109 86 -109q31 0 53 25t22 55v377q0 43 -22.5 79t-61.5 36q-66 0 -92 -123h-8q-23 0 -57 22l-54 35q-6 4 -36 15l-52 18q-25 8 -90 31h-18q-70 0 -163 -51.5t-146 -108.5q-88 -160 -89 -285zM399 -231q0 -127 119 -127q61 0 100 45t39 106q0 125 -125 125 q-133 1 -133 -149z" />
<glyph unicode="&#x15f;" horiz-adv-x="894" d="M20 102q0 -109 76 -108q61 0 80 55q6 29 29 66q18 -10 61 -47q37 -33 66 -41l82 -21q6 -2 16 -4l55 -2q154 0 269.5 103.5t115.5 254.5q0 135 -129 254q-215 88 -456 80q-88 23 -88 107q0 39 32 78q31 33 72 47q-12 0 39 2h37h45q84 0 132 -34t83 -112q49 -113 100 -112 q41 0 63.5 34.5t22.5 77.5v25q0 -23 -4 113l-2 67q-2 51 -2 43q2 29 -21.5 50.5t-52.5 21.5q-33 0 -55 -31q-31 -43 -41 -49q-100 70 -289 96h-18q-43 0 -100 -24q-203 -88 -203 -277q0 -168 102 -242q70 -49 238 -69l137 -17q92 -10 125 -24q66 -27 65 -94q0 -90 -84 -138 q-68 -39 -165 -38q-90 0 -158 57q-31 27 -107 129q-10 33 -20 64.5t-64 31.5q-72 0 -71 -63v-242q-13 -25 -13 -68zM317 -272q0 -127 119 -127q61 0 100 45t39 106q0 125 -124 125q-134 1 -134 -149z" />
<glyph unicode="&#x2000;" horiz-adv-x="976" />
<glyph unicode="&#x2001;" horiz-adv-x="1952" />
<glyph unicode="&#x2002;" horiz-adv-x="976" />
<glyph unicode="&#x2003;" horiz-adv-x="1952" />
<glyph unicode="&#x2004;" horiz-adv-x="650" />
<glyph unicode="&#x2005;" horiz-adv-x="488" />
<glyph unicode="&#x2006;" horiz-adv-x="325" />
<glyph unicode="&#x2007;" horiz-adv-x="325" />
<glyph unicode="&#x2008;" horiz-adv-x="244" />
<glyph unicode="&#x2009;" horiz-adv-x="390" />
<glyph unicode="&#x200a;" horiz-adv-x="108" />
<glyph unicode="&#x2013;" horiz-adv-x="829" d="M20 778q0 -47 37 -79.5t84 -32.5h265l38 12h281q35 0 58.5 35t23.5 71q0 57 -115 82q-25 2 -155 11q-96 6 -158 6h-31q-16 0 -31 -9q-37 0 -36 0q-49 -2 -37 -2q-18 0 -57.5 5.5t-57.5 5.5q-43 0 -76 -31t-33 -74z" />
<glyph unicode="&#x202f;" horiz-adv-x="390" />
<glyph unicode="&#x205f;" horiz-adv-x="488" />
<glyph unicode="&#x25fc;" horiz-adv-x="1095" d="M0 0v1096h1096v-1096h-1096z" />
</font>
</defs>
</svg>
